<svg width="19" height="18" viewBox="0 0 19 18" fill="none" xmlns="http://www.w3.org/2000/svg">
<path d="M9.23714 8.87116V13.3017M11.4524 11.0864H7.02186M5.91423 6.10206V4.99443C5.91423 4.11313 6.26432 3.26794 6.88748 2.64477C7.51065 2.0216 8.35585 1.67151 9.23714 1.67151C10.1184 1.67151 10.9636 2.0216 11.5868 2.64477C12.21 3.26794 12.5601 4.11313 12.5601 4.99443V6.10206M3.14513 6.10206C2.99825 6.10206 2.85738 6.16041 2.75352 6.26427C2.64966 6.36814 2.59131 6.509 2.59131 6.65588V14.1324C2.59131 15.1792 3.48296 16.0708 4.52968 16.0708H13.9446C14.9913 16.0708 15.883 15.2224 15.883 14.1757V6.65588C15.883 6.509 15.8246 6.36814 15.7208 6.26427C15.6169 6.16041 15.476 6.10206 15.3292 6.10206H3.14513Z" stroke="white" stroke-width="1.10764" stroke-linecap="round" stroke-linejoin="round"/>
</svg>
