<svg width="38" height="39" viewBox="0 0 38 39" fill="none" xmlns="http://www.w3.org/2000/svg">
<rect y="0.5" width="38" height="38" rx="19" fill="url(#paint0_linear_40005093_89351)"/>
<g clip-path="url(#clip0_40005093_89351)">
<path d="M29.277 19.8984C29.1195 19.6563 29.1195 19.3437 29.277 19.1016L30.1535 17.7544C30.9518 16.5273 30.4139 14.8788 29.0494 14.3564L27.5484 13.7817C27.2788 13.6784 27.0949 13.4255 27.0801 13.137L26.9973 11.532C26.922 10.0703 25.5178 9.05227 24.1067 9.43196L22.5547 9.84924C22.2759 9.92414 21.9784 9.82754 21.7969 9.60296L20.7865 8.35304C19.8663 7.21474 18.1322 7.21657 17.2136 8.35304L16.2032 9.60301C16.0217 9.82763 15.7242 9.92414 15.4453 9.84929L13.8933 9.43201C12.4794 9.05176 11.0778 10.0732 11.0026 11.5321L10.9199 13.1371C10.905 13.4255 10.7212 13.6785 10.4515 13.7817L8.9507 14.3564C7.58332 14.8798 7.0497 16.5298 7.84652 17.7545L8.72303 19.1016C8.88048 19.3436 8.88048 19.6564 8.72303 19.8984L7.84666 21.2455C7.0482 22.4727 7.58632 24.1214 8.95075 24.6436L10.4517 25.2182C10.7213 25.3216 10.9052 25.5745 10.9201 25.863L11.0028 27.4679C11.0782 28.93 12.4825 29.9476 13.8934 29.568L15.4454 29.1507C15.7243 29.0759 16.0217 29.1725 16.2033 29.397L17.2136 30.6469C18.134 31.7855 19.8681 31.7832 20.7866 30.6469L21.797 29.397C21.9785 29.1725 22.2761 29.076 22.5548 29.1507L24.1068 29.568C25.5204 29.9484 26.9222 28.9271 26.9975 27.4679L27.0802 25.863C27.0951 25.5746 27.2789 25.3216 27.5486 25.2183L29.0494 24.6436C30.4167 24.1202 30.9504 22.4703 30.1536 21.2455L29.277 19.8984ZM28.4892 23.1806L26.9883 23.7552C26.1404 24.0799 25.5623 24.8755 25.5156 25.7822L25.4328 27.3872C25.4089 27.8523 24.9624 28.1757 24.5135 28.0551L22.9615 27.6379C22.0847 27.402 21.1492 27.7061 20.5785 28.4121L19.5682 29.662C19.2755 30.0241 18.7241 30.0234 18.4319 29.662L17.4216 28.4121C16.9792 27.8648 16.3177 27.5591 15.6342 27.5591C15.436 27.5591 15.2358 27.5848 15.0386 27.6379L13.4865 28.0551C13.0367 28.1759 12.5912 27.8513 12.5672 27.3872L12.4845 25.7822C12.4378 24.8755 11.8597 24.0798 11.0118 23.7552L9.51086 23.1805C9.076 23.014 8.90636 22.4894 9.15976 22.0999L10.0362 20.7528C10.5314 19.9917 10.5314 19.0082 10.0362 18.2472L9.15976 16.9001C8.9058 16.5098 9.07689 15.9856 9.5109 15.8194L11.0118 15.2448C11.8597 14.9201 12.4378 14.1244 12.4845 13.2178L12.5673 11.6128C12.5912 11.1477 13.0377 10.8243 13.4866 10.9448L15.0387 11.3621C15.9154 11.5979 16.8508 11.2939 17.4216 10.5878L18.432 9.33793C18.7247 8.97587 19.2762 8.97662 19.5682 9.33793L20.5786 10.5879C21.1495 11.294 22.0847 11.598 22.9616 11.3621L24.5136 10.9448C24.9634 10.824 25.4089 11.1487 25.4329 11.6128L25.5156 13.2178C25.5623 14.1244 26.1404 14.9201 26.9883 15.2448L28.4893 15.8195C28.9241 15.9859 29.0937 16.5106 28.8404 16.9001L27.9639 18.2472C27.4687 19.0082 27.4687 19.9917 27.9639 20.7528L28.8404 22.0999C29.0942 22.4902 28.9232 23.0144 28.4892 23.1806Z" fill="white"/>
<path d="M28.4892 23.1806L26.9883 23.7552C26.1404 24.0799 25.5623 24.8755 25.5156 25.7822L25.4328 27.3872C25.4089 27.8523 24.9624 28.1757 24.5135 28.0551L22.9615 27.6379C22.0847 27.402 21.1492 27.7061 20.5785 28.4121L19.5682 29.662C19.2755 30.0241 18.7241 30.0234 18.4319 29.662L17.4216 28.4121C16.9792 27.8648 16.3177 27.5591 15.6342 27.5591C15.436 27.5591 15.2358 27.5848 15.0386 27.6379L13.4865 28.0551C13.0367 28.1759 12.5912 27.8513 12.5672 27.3872L12.4845 25.7822C12.4378 24.8755 11.8597 24.0798 11.0118 23.7552L9.51086 23.1805C9.076 23.014 8.90636 22.4894 9.15976 22.0999L10.0362 20.7528C10.5314 19.9917 10.5314 19.0082 10.0362 18.2472L9.15976 16.9001C8.9058 16.5098 9.07689 15.9856 9.5109 15.8194L11.0118 15.2448C11.8597 14.9201 12.4378 14.1244 12.4845 13.2178L12.5673 11.6128C12.5912 11.1477 13.0377 10.8243 13.4866 10.9448L15.0387 11.3621C15.9154 11.5979 16.8508 11.2939 17.4216 10.5878L18.432 9.33793C18.7247 8.97587 19.2762 8.97662 19.5682 9.33793L20.5786 10.5879C21.1495 11.294 22.0847 11.598 22.9616 11.3621L24.5136 10.9448C24.9634 10.824 25.4089 11.1487 25.4329 11.6128L25.5156 13.2178C25.5623 14.1244 26.1404 14.9201 26.9883 15.2448L28.4893 15.8195C28.9241 15.9859 29.0937 16.5106 28.8404 16.9001L27.9639 18.2472C27.4687 19.0082 27.4687 19.9917 27.9639 20.7528L28.8404 22.0999C29.0942 22.4902 28.9232 23.0144 28.4892 23.1806Z" fill="white"/>
<path d="M16.0001 24.1081V14.7015H18.5203V13.5H19.5752V14.7161C20.6106 14.7747 21.3676 14.9945 21.8463 15.3755C22.3249 15.7564 22.5642 16.3083 22.5642 17.0311C22.5642 17.5781 22.4031 18.0421 22.0807 18.4231C21.7584 18.7943 21.3188 19.0238 20.762 19.1117V19.185C21.3383 19.2827 21.817 19.5024 22.1979 19.8443C22.5886 20.1862 22.784 20.7088 22.784 21.4121C22.784 22.2619 22.491 22.9261 21.9049 23.4048C21.3188 23.8736 20.5422 24.1081 19.5752 24.1081V25.5H18.5203V24.1081H16.0001ZM17.6118 18.4377H18.5203V16.3132H17.6118V18.4377ZM20.762 17.3242C20.762 16.7283 20.3664 16.3962 19.5752 16.3278V18.4231C20.0148 18.3938 20.3225 18.2814 20.4983 18.0861C20.6741 17.8907 20.762 17.6368 20.762 17.3242ZM17.6118 22.467H18.5203V20.0055H17.6118V22.467ZM20.9672 21.207C20.9672 20.8944 20.8646 20.6258 20.6595 20.4011C20.4641 20.1667 20.1027 20.0397 19.5752 20.0201V22.467C20.0929 22.4475 20.4543 22.3205 20.6595 22.0861C20.8646 21.8516 20.9672 21.5586 20.9672 21.207Z" fill="url(#paint1_linear_40005093_89351)"/>
</g>
<defs>
<linearGradient id="paint0_linear_40005093_89351" x1="17.4167" y1="0.5" x2="17.4167" y2="38.5" gradientUnits="userSpaceOnUse">
<stop stop-color="#2291F5"/>
<stop offset="1" stop-color="#2EA9E1"/>
</linearGradient>
<linearGradient id="paint1_linear_40005093_89351" x1="19.1094" y1="13.5" x2="19.1094" y2="25.5" gradientUnits="userSpaceOnUse">
<stop stop-color="#2291F5"/>
<stop offset="1" stop-color="#2EA9E1"/>
</linearGradient>
<clipPath id="clip0_40005093_89351">
<rect width="24" height="24" fill="white" transform="translate(7 7.5)"/>
</clipPath>
</defs>
</svg>
