<svg width="66" height="66" viewBox="0 0 66 66" fill="none" xmlns="http://www.w3.org/2000/svg">
<g filter="url(#filter0_d_40005093_89369)">
<rect x="14" y="15" width="38" height="38" rx="19" fill="url(#paint0_linear_40005093_89369)" shape-rendering="crispEdges"/>
<path d="M24.778 25.655C24.597 26.015 24.508 26.461 24.33 27.351L23.732 30.341C23.6473 30.7487 23.6466 31.1694 23.7301 31.5773C23.8136 31.9852 23.9794 32.3718 24.2175 32.7135C24.4556 33.0551 24.7609 33.3445 25.1147 33.564C25.4685 33.7835 25.8634 33.9285 26.2752 33.9901C26.6871 34.0518 27.1071 34.0287 27.5097 33.9223C27.9123 33.8159 28.2889 33.6285 28.6165 33.3715C28.9441 33.1145 29.2159 32.7934 29.4151 32.4277C29.6143 32.0621 29.7368 31.6596 29.775 31.245L29.845 30.555C29.8071 30.9938 29.8612 31.4358 30.0037 31.8525C30.1463 32.2693 30.3742 32.6517 30.673 32.9754C30.9717 33.2991 31.3347 33.5569 31.7387 33.7324C32.1427 33.9078 32.5789 33.9971 33.0194 33.9944C33.4598 33.9918 33.8949 33.8973 34.2968 33.717C34.6986 33.5366 35.0585 33.2745 35.3533 32.9472C35.6481 32.6199 35.8714 32.2348 36.0089 31.8163C36.1465 31.3979 36.1952 30.9554 36.152 30.517L36.225 31.245C36.2633 31.6596 36.3858 32.0621 36.585 32.4277C36.7842 32.7934 37.0559 33.1145 37.3835 33.3715C37.7112 33.6285 38.0878 33.8159 38.4904 33.9223C38.8929 34.0287 39.313 34.0518 39.7248 33.9901C40.1366 33.9285 40.5315 33.7835 40.8853 33.564C41.2392 33.3445 41.5445 33.0551 41.7825 32.7135C42.0206 32.3718 42.1865 31.9852 42.27 31.5773C42.3534 31.1694 42.3528 30.7487 42.268 30.341L41.67 27.351C41.492 26.461 41.403 26.016 41.222 25.655C41.0334 25.279 40.7679 24.9469 40.4426 24.6803C40.1174 24.4136 39.7397 24.2183 39.334 24.107C38.944 24 38.49 24 37.582 24H28.418C27.51 24 27.056 24 26.666 24.107C26.2604 24.2183 25.8827 24.4136 25.5574 24.6803C25.2322 24.9469 24.9666 25.279 24.778 25.655ZM39.269 35.5C40.0503 35.502 40.8189 35.3018 41.5 34.919V36C41.5 39.771 41.5 41.657 40.328 42.828C39.385 43.772 37.98 43.955 35.5 43.991V40.5C35.5 39.565 35.5 39.098 35.299 38.75C35.1674 38.522 34.978 38.3326 34.75 38.201C34.402 38 33.935 38 33 38C32.065 38 31.598 38 31.25 38.201C31.022 38.3326 30.8327 38.522 30.701 38.75C30.5 39.098 30.5 39.565 30.5 40.5V43.991C28.02 43.955 26.615 43.771 25.672 42.828C24.5 41.657 24.5 39.771 24.5 36V34.919C25.1814 35.302 25.9504 35.5021 26.732 35.5C27.8877 35.5007 29.0003 35.0617 29.844 34.272C30.7037 35.0643 31.8309 35.5029 33 35.5C34.1692 35.5029 35.2963 35.0643 36.156 34.272C36.9998 35.0617 38.1134 35.5007 39.269 35.5Z" fill="white"/>
</g>
<defs>
<filter id="filter0_d_40005093_89369" x="0.8" y="0.8" width="64.4" height="64.4" filterUnits="userSpaceOnUse" color-interpolation-filters="sRGB">
<feFlood flood-opacity="0" result="BackgroundImageFix"/>
<feColorMatrix in="SourceAlpha" type="matrix" values="0 0 0 0 0 0 0 0 0 0 0 0 0 0 0 0 0 0 127 0" result="hardAlpha"/>
<feOffset dy="-1"/>
<feGaussianBlur stdDeviation="6.6"/>
<feComposite in2="hardAlpha" operator="out"/>
<feColorMatrix type="matrix" values="0 0 0 0 0.109804 0 0 0 0 0.603922 0 0 0 0 0.839216 0 0 0 0.32 0"/>
<feBlend mode="normal" in2="BackgroundImageFix" result="effect1_dropShadow_40005093_89369"/>
<feBlend mode="normal" in="SourceGraphic" in2="effect1_dropShadow_40005093_89369" result="shape"/>
</filter>
<linearGradient id="paint0_linear_40005093_89369" x1="31.4167" y1="15" x2="31.4167" y2="53" gradientUnits="userSpaceOnUse">
<stop stop-color="#2291F5"/>
<stop offset="1" stop-color="#2EA9E1"/>
</linearGradient>
</defs>
</svg>
