<svg width="31" height="30" viewBox="0 0 31 30" fill="none" xmlns="http://www.w3.org/2000/svg">
<path d="M29.5625 9.84376V7.50001C29.5583 7.35668 29.5231 7.21595 29.4594 7.08751L27.1719 2.49376C26.938 2.02534 26.5781 1.63149 26.1325 1.35655C25.687 1.0816 25.1735 0.936477 24.65 0.937505H6.35C5.82645 0.936477 5.31301 1.0816 4.86747 1.35655C4.42193 1.63149 4.06197 2.02534 3.82812 2.49376L1.54063 7.07813C1.47557 7.20943 1.44035 7.3535 1.4375 7.50001V9.84376C1.43858 10.5371 1.61016 11.2196 1.93713 11.831C2.2641 12.4425 2.73643 12.9641 3.3125 13.35V27.1875H2.375C2.12636 27.1875 1.8879 27.2863 1.71209 27.4621C1.53627 27.6379 1.4375 27.8764 1.4375 28.125C1.4375 28.3736 1.53627 28.6121 1.71209 28.7879C1.8879 28.9637 2.12636 29.0625 2.375 29.0625H28.625C28.8736 29.0625 29.1121 28.9637 29.2879 28.7879C29.4637 28.6121 29.5625 28.3736 29.5625 28.125C29.5625 27.8764 29.4637 27.6379 29.2879 27.4621C29.1121 27.2863 28.8736 27.1875 28.625 27.1875H27.6875V13.35C28.2636 12.9641 28.7359 12.4425 29.0629 11.831C29.3898 11.2196 29.5614 10.5371 29.5625 9.84376ZM27.6875 9.84376C27.6875 10.4654 27.4406 11.0615 27.001 11.501C26.5615 11.9406 25.9654 12.1875 25.3438 12.1875C24.7221 12.1875 24.126 11.9406 23.6865 11.501C23.2469 11.0615 23 10.4654 23 9.84376V8.43751H27.6875V9.84376ZM3.3125 9.84376V8.43751H8V9.84376C8 10.4654 7.75307 11.0615 7.31353 11.501C6.87399 11.9406 6.27785 12.1875 5.65625 12.1875C5.03465 12.1875 4.43851 11.9406 3.99897 11.501C3.55943 11.0615 3.3125 10.4654 3.3125 9.84376ZM9.875 8.43751H14.5625V9.84376C14.5625 10.4654 14.3156 11.0615 13.876 11.501C13.4365 11.9406 12.8404 12.1875 12.2188 12.1875C11.5971 12.1875 11.001 11.9406 10.5615 11.501C10.1219 11.0615 9.875 10.4654 9.875 9.84376V8.43751ZM16.4375 8.43751H21.125V9.84376C21.125 10.4654 20.8781 11.0615 20.4385 11.501C19.999 11.9406 19.4029 12.1875 18.7812 12.1875C18.1596 12.1875 17.5635 11.9406 17.124 11.501C16.6844 11.0615 16.4375 10.4654 16.4375 9.84376V8.43751ZM5.50625 3.32813C5.58487 3.1721 5.70553 3.04114 5.85462 2.95003C6.0037 2.85892 6.17528 2.81129 6.35 2.81251H24.65C24.8247 2.81129 24.9963 2.85892 25.1454 2.95003C25.2945 3.04114 25.4151 3.1721 25.4937 3.32813L27.1062 6.56251H3.89375L5.50625 3.32813ZM18.3125 27.1875H12.6875V21.5625C12.6875 21.3139 12.7863 21.0754 12.9621 20.8996C13.1379 20.7238 13.3764 20.625 13.625 20.625H17.375C17.6236 20.625 17.8621 20.7238 18.0379 20.8996C18.2137 21.0754 18.3125 21.3139 18.3125 21.5625V27.1875ZM25.8125 27.1875H20.1875V21.5625C20.1875 20.8166 19.8912 20.1012 19.3637 19.5738C18.8363 19.0463 18.1209 18.75 17.375 18.75H13.625C12.8791 18.75 12.1637 19.0463 11.6363 19.5738C11.1088 20.1012 10.8125 20.8166 10.8125 21.5625V27.1875H5.1875V14.0625C5.34268 14.0874 5.49921 14.1031 5.65625 14.1094C6.28911 14.1039 6.91263 13.9562 7.48063 13.677C8.04863 13.3979 8.54654 12.9946 8.9375 12.4969C9.33296 12.9862 9.83287 13.3809 10.4006 13.6521C10.9684 13.9233 11.5896 14.064 12.2188 14.064C12.8479 14.064 13.4691 13.9233 14.0369 13.6521C14.6046 13.3809 15.1045 12.9862 15.5 12.4969C15.8955 12.9862 16.3954 13.3809 16.9631 13.6521C17.5309 13.9233 18.1521 14.064 18.7812 14.064C19.4104 14.064 20.0316 13.9233 20.5994 13.6521C21.1671 13.3809 21.667 12.9862 22.0625 12.4969C22.4581 12.986 22.9581 13.3804 23.5258 13.6513C24.0936 13.9222 24.7147 14.0627 25.3438 14.0625C25.4999 14.0717 25.6564 14.0717 25.8125 14.0625V27.1875Z" fill="#0F6595"/>
</svg>
