<svg width="31" height="30" viewBox="0 0 31 30" fill="none" xmlns="http://www.w3.org/2000/svg">
<g clip-path="url(#clip0_40005093_89484)">
<path d="M30.321 20.3572H27.6068C23.1885 20.3572 19.6068 23.9389 19.6068 28.3572V28.9286H30.321V20.3572Z" fill="#E2F2FC"/>
<path d="M12.6425 11.2501H18.5353L16.9282 1.07153H14.2496L12.6425 11.2501Z" fill="#BFE4F8"/>
<path d="M30.4831 6.48C30.4775 6.41625 30.4644 6.35625 30.4456 6.29438C30.4269 6.2325 30.4044 6.17625 30.3744 6.12C30.3612 6.09562 30.3594 6.06562 30.3425 6.04125L26.5925 0.41625C26.4181 0.1575 26.1256 0 25.8125 0H5.1875C4.87438 0 4.58188 0.1575 4.4075 0.418125L0.6575 6.04313C0.640625 6.0675 0.63875 6.09563 0.625625 6.12188C0.595625 6.17813 0.573125 6.23438 0.554375 6.29625C0.535625 6.35813 0.5225 6.41813 0.516875 6.48188C0.513125 6.50813 0.5 6.5325 0.5 6.5625V28.125C0.5 29.16 1.34188 30 2.375 30H28.625C29.6581 30 30.5 29.16 30.5 28.125V6.5625C30.5 6.5325 30.4869 6.50813 30.4831 6.48ZM25.31 1.875L27.8112 5.625H19.1075L18.4813 1.875H25.31ZM14.4181 1.875H16.58L17.2062 5.625H13.7938L14.4181 1.875ZM13.625 7.5H17.375V10.8881L15.7962 10.3594C15.6031 10.2975 15.395 10.2975 15.2038 10.3594L13.625 10.8881V7.5ZM5.69 1.875H12.5187L11.8925 5.625H3.18875L5.69 1.875ZM28.625 29.0625V28.125H2.375V7.5H11.75V12.1875C11.75 12.4894 11.8944 12.7725 12.14 12.9469C12.3838 13.125 12.6969 13.1662 12.9837 13.0781L15.5 12.2381L18.0163 13.0762C18.1138 13.1081 18.2131 13.125 18.3125 13.125C18.5075 13.125 18.6987 13.065 18.86 12.9469C19.1056 12.7725 19.25 12.4894 19.25 12.1875V7.5H28.625V28.125C28.625 28.125 28.625 28.125 28.6269 28.125L28.625 29.0625Z" fill="#0F6595"/>
<path d="M10.8125 20.625H5.1875C4.67 20.625 4.25 21.045 4.25 21.5625C4.25 22.08 4.67 22.5 5.1875 22.5H10.8125C11.33 22.5 11.75 22.08 11.75 21.5625C11.75 21.045 11.33 20.625 10.8125 20.625Z" fill="#0F6595"/>
<path d="M8 24.375H5.1875C4.67 24.375 4.25 24.795 4.25 25.3125C4.25 25.83 4.67 26.25 5.1875 26.25H8C8.5175 26.25 8.9375 25.83 8.9375 25.3125C8.9375 24.795 8.5175 24.375 8 24.375Z" fill="#0F6595"/>
</g>
<defs>
<clipPath id="clip0_40005093_89484">
<rect width="30" height="30" fill="white" transform="translate(0.5)"/>
</clipPath>
</defs>
</svg>
