<svg width="39" height="39" viewBox="0 0 39 39" fill="none" xmlns="http://www.w3.org/2000/svg">
<rect x="0.666748" y="0.5" width="38" height="38" rx="19" fill="url(#paint0_linear_40005093_89330)"/>
<path d="M13.8773 15.8158H9.66675L11.8773 29.5H27.4562L29.6667 15.8158H25.4562M13.8773 15.8158H25.4562M13.8773 15.8158C13.8773 12.3279 16.4694 9.5 19.6667 9.5C22.8641 9.5 25.4562 12.3279 25.4562 15.8158" stroke="white" stroke-width="2.10526" stroke-linecap="round" stroke-linejoin="round"/>
<path d="M10.6924 16.6794H29.1539L27.1026 28.9871H12.7437L10.6924 16.6794Z" fill="white"/>
<path d="M15.3438 21.1239C16.0047 21.1239 16.5404 20.5882 16.5404 19.9273C16.5404 19.2664 16.0047 18.7307 15.3438 18.7307C14.6829 18.7307 14.1472 19.2664 14.1472 19.9273C14.1472 20.5882 14.6829 21.1239 15.3438 21.1239Z" fill="#1C9AD6"/>
<path d="M15.9415 24.1152C15.9415 24.1152 17.1381 25.9101 19.5313 25.9101C21.9244 25.9101 23.121 24.1152 23.121 24.1152" stroke="#1C9AD6" stroke-width="2.39317" stroke-linecap="round" stroke-linejoin="round"/>
<path d="M23.7192 21.1239C24.38 21.1239 24.9158 20.5882 24.9158 19.9273C24.9158 19.2664 24.38 18.7307 23.7192 18.7307C23.0583 18.7307 22.5226 19.2664 22.5226 19.9273C22.5226 20.5882 23.0583 21.1239 23.7192 21.1239Z" fill="#1C9AD6"/>
<defs>
<linearGradient id="paint0_linear_40005093_89330" x1="18.0834" y1="0.5" x2="18.0834" y2="38.5" gradientUnits="userSpaceOnUse">
<stop stop-color="#2291F5"/>
<stop offset="1" stop-color="#2EA9E1"/>
</linearGradient>
</defs>
</svg>
