<svg width="31" height="30" viewBox="0 0 31 30" fill="none" xmlns="http://www.w3.org/2000/svg">
<path d="M18.6074 2.5708H19.4771C23.699 2.5708 27.2459 5.74536 27.7121 9.94151L27.9289 11.8922H18.6074V2.5708Z" fill="#E2F2FC"/>
<path d="M17.7902 0.501721C17.6394 0.494626 17.4888 0.518203 17.3473 0.571024C17.2059 0.623845 17.0767 0.704812 16.9675 0.809025C16.8583 0.913238 16.7713 1.03853 16.7119 1.17732C16.6525 1.3161 16.6219 1.4655 16.6219 1.61646V12.7616C16.6219 13.0575 16.7395 13.3414 16.9488 13.5506C17.158 13.7599 17.4418 13.8774 17.7378 13.8774H28.8829C29.034 13.8776 29.1835 13.8471 29.3224 13.7878C29.4613 13.7284 29.5867 13.6415 29.6911 13.5323C29.7954 13.4231 29.8765 13.2938 29.9294 13.1523C29.9823 13.0108 30.0059 12.86 29.9988 12.7091C29.6886 6.10776 24.3905 0.810813 17.7891 0.501721M18.8536 11.6457V2.85059C21.0586 3.20465 23.0957 4.24534 24.6749 5.82449C26.254 7.40363 27.2947 9.44073 27.6488 11.6457H18.8536ZM14.3902 4.96401C14.3904 4.81296 14.3599 4.66344 14.3006 4.52453C14.2412 4.38561 14.1543 4.26018 14.0451 4.15585C13.9358 4.05152 13.8066 3.97045 13.6651 3.91756C13.5236 3.86467 13.3728 3.84106 13.2219 3.84816C6.41746 4.16953 1 9.78561 1 16.6671C1 23.7538 6.74552 29.4994 13.8323 29.4994C20.7149 29.4994 26.331 24.0819 26.6501 17.2774C26.6572 17.1266 26.6336 16.976 26.5808 16.8346C26.528 16.6931 26.447 16.5639 26.3428 16.4547C26.2386 16.3455 26.1133 16.2585 25.9745 16.1991C25.8357 16.1397 25.6863 16.1091 25.5354 16.1091H17.1799C16.44 16.1091 15.7304 15.8152 15.2073 15.2921C14.6841 14.7689 14.3902 14.0594 14.3902 13.3195V4.96401ZM3.2317 16.6671C3.2317 11.3824 7.09925 7.00044 12.1585 6.19815V13.3195C12.1585 13.9789 12.2884 14.6319 12.5407 15.2411C12.7931 15.8503 13.163 16.4039 13.6292 16.8701C14.5709 17.8118 15.8481 18.3408 17.1799 18.3408H24.3012C23.4989 23.4001 19.117 27.2677 13.8323 27.2677C11.0208 27.2677 8.32454 26.1508 6.33655 24.1628C4.34855 22.1748 3.2317 19.4785 3.2317 16.6671Z" fill="#0F6595"/>
</svg>
