<svg width="34" height="32" viewBox="0 0 34 32" fill="none" xmlns="http://www.w3.org/2000/svg">
<path d="M29.5625 9.84376V7.50001C29.5583 7.35668 29.5231 7.21595 29.4594 7.08751L27.1719 2.49376C26.938 2.02534 26.5781 1.63149 26.1325 1.35655C25.687 1.0816 25.1735 0.936477 24.65 0.937505H6.35C5.82645 0.936477 5.31301 1.0816 4.86747 1.35655C4.42193 1.63149 4.06197 2.02534 3.82812 2.49376L1.54063 7.07813C1.47557 7.20943 1.44035 7.3535 1.4375 7.50001V9.84376C1.43858 10.5371 1.61016 11.2196 1.93713 11.831C2.2641 12.4425 2.73643 12.9641 3.3125 13.35V27.1875H2.375C2.12636 27.1875 1.8879 27.2863 1.71209 27.4621C1.53627 27.6379 1.4375 27.8764 1.4375 28.125C1.4375 28.3736 1.53627 28.6121 1.71209 28.7879C1.8879 28.9637 2.12636 29.0625 2.375 29.0625H28.625C28.8736 29.0625 29.1121 28.9637 29.2879 28.7879C29.4637 28.6121 29.5625 28.3736 29.5625 28.125C29.5625 27.8764 29.4637 27.6379 29.2879 27.4621C29.1121 27.2863 28.8736 27.1875 28.625 27.1875H27.6875V13.35C28.2636 12.9641 28.7359 12.4425 29.0629 11.831C29.3898 11.2196 29.5614 10.5371 29.5625 9.84376ZM27.6875 9.84376C27.6875 10.4654 27.4406 11.0615 27.001 11.501C26.5615 11.9406 25.9654 12.1875 25.3438 12.1875C24.7221 12.1875 24.126 11.9406 23.6865 11.501C23.2469 11.0615 23 10.4654 23 9.84376V8.43751H27.6875V9.84376ZM3.3125 9.84376V8.43751H8V9.84376C8 10.4654 7.75307 11.0615 7.31353 11.501C6.87399 11.9406 6.27785 12.1875 5.65625 12.1875C5.03465 12.1875 4.43851 11.9406 3.99897 11.501C3.55943 11.0615 3.3125 10.4654 3.3125 9.84376ZM9.875 8.43751H14.5625V9.84376C14.5625 10.4654 14.3156 11.0615 13.876 11.501C13.4365 11.9406 12.8404 12.1875 12.2188 12.1875C11.5971 12.1875 11.001 11.9406 10.5615 11.501C10.1219 11.0615 9.875 10.4654 9.875 9.84376V8.43751ZM16.4375 8.43751H21.125V9.84376C21.125 10.4654 20.8781 11.0615 20.4385 11.501C19.999 11.9406 19.4029 12.1875 18.7812 12.1875C18.1596 12.1875 17.5635 11.9406 17.124 11.501C16.6844 11.0615 16.4375 10.4654 16.4375 9.84376V8.43751ZM5.50625 3.32813C5.58487 3.1721 5.70553 3.04114 5.85462 2.95003C6.0037 2.85892 6.17528 2.81129 6.35 2.81251H24.65C24.8247 2.81129 24.9963 2.85892 25.1454 2.95003C25.2945 3.04114 25.4151 3.1721 25.4937 3.32813L27.1062 6.56251H3.89375L5.50625 3.32813ZM18.3125 27.1875H12.6875V21.5625C12.6875 21.3139 12.7863 21.0754 12.9621 20.8996C13.1379 20.7238 13.3764 20.625 13.625 20.625H17.375C17.6236 20.625 17.8621 20.7238 18.0379 20.8996C18.2137 21.0754 18.3125 21.3139 18.3125 21.5625V27.1875ZM25.8125 27.1875H20.1875V21.5625C20.1875 20.8166 19.8912 20.1012 19.3637 19.5738C18.8363 19.0463 18.1209 18.75 17.375 18.75H13.625C12.8791 18.75 12.1637 19.0463 11.6363 19.5738C11.1088 20.1012 10.8125 20.8166 10.8125 21.5625V27.1875H5.1875V14.0625C5.34268 14.0874 5.49921 14.1031 5.65625 14.1094C6.28911 14.1039 6.91263 13.9562 7.48063 13.677C8.04863 13.3979 8.54654 12.9946 8.9375 12.4969C9.33296 12.9862 9.83287 13.3809 10.4006 13.6521C10.9684 13.9233 11.5896 14.064 12.2188 14.064C12.8479 14.064 13.4691 13.9233 14.0369 13.6521C14.6046 13.3809 15.1045 12.9862 15.5 12.4969C15.8955 12.9862 16.3954 13.3809 16.9631 13.6521C17.5309 13.9233 18.1521 14.064 18.7812 14.064C19.4104 14.064 20.0316 13.9233 20.5994 13.6521C21.1671 13.3809 21.667 12.9862 22.0625 12.4969C22.4581 12.986 22.9581 13.3804 23.5258 13.6513C24.0936 13.9222 24.7147 14.0627 25.3438 14.0625C25.4999 14.0717 25.6564 14.0717 25.8125 14.0625V27.1875Z" fill="#0F6595"/>
<rect x="15.5" y="14" width="18" height="18" rx="9" fill="white"/>
<path d="M30.516 23.6908C30.4004 23.5592 30.3366 23.3899 30.3366 23.2147C30.3366 23.0395 30.4004 22.8702 30.516 22.7386L31.4394 21.6998C31.5411 21.5863 31.6043 21.4435 31.6199 21.2919C31.6354 21.1403 31.6026 20.9876 31.526 20.8558L30.0832 18.3599C30.0074 18.2282 29.892 18.1239 29.7534 18.0617C29.6148 17.9995 29.4601 17.9827 29.3114 18.0136L27.9552 18.2877C27.7826 18.3234 27.603 18.2946 27.4501 18.2069C27.2973 18.1192 27.1819 17.9786 27.1256 17.8116L26.6856 16.4915C26.6372 16.3482 26.545 16.2238 26.422 16.1358C26.299 16.0477 26.1515 16.0006 26.0003 16.001H23.1148C22.9575 15.9928 22.8018 16.0363 22.6715 16.1249C22.5413 16.2134 22.4436 16.3422 22.3934 16.4915L21.9894 17.8116C21.9332 17.9786 21.8177 18.1192 21.6649 18.2069C21.5121 18.2946 21.3324 18.3234 21.1598 18.2877L19.7676 18.0136C19.6266 17.9937 19.4829 18.0159 19.3545 18.0776C19.2261 18.1392 19.1189 18.2374 19.0462 18.3599L17.6035 20.8558C17.525 20.9861 17.4897 21.1379 17.5026 21.2895C17.5156 21.4411 17.5761 21.5847 17.6756 21.6998L18.5918 22.7386C18.7074 22.8702 18.7712 23.0395 18.7712 23.2147C18.7712 23.3899 18.7074 23.5592 18.5918 23.6908L17.6756 24.7296C17.5761 24.8447 17.5156 24.9883 17.5026 25.1399C17.4897 25.2915 17.525 25.4433 17.6035 25.5736L19.0462 28.0695C19.122 28.2012 19.2375 28.3055 19.3761 28.3677C19.5147 28.4299 19.6694 28.4467 19.8181 28.4158L21.1743 28.1417C21.3468 28.106 21.5265 28.1348 21.6793 28.2225C21.8321 28.3102 21.9476 28.4508 22.0039 28.6178L22.4439 29.9379C22.4941 30.0872 22.5918 30.216 22.722 30.3046C22.8523 30.3931 23.008 30.4366 23.1653 30.4284H26.0507C26.202 30.4288 26.3495 30.3817 26.4725 30.2936C26.5955 30.2056 26.6877 30.0812 26.7361 29.9379L27.1761 28.6178C27.2324 28.4508 27.3478 28.3102 27.5006 28.2225C27.6535 28.1348 27.8331 28.106 28.0057 28.1417L29.3618 28.4158C29.5106 28.4467 29.6653 28.4299 29.8039 28.3677C29.9425 28.3055 30.0579 28.2012 30.1337 28.0695L31.5765 25.5736C31.653 25.4418 31.6859 25.2891 31.6704 25.1375C31.6548 24.9859 31.5916 24.8431 31.4899 24.7296L30.516 23.6908ZM29.4412 24.6574L30.0183 25.3067L29.0949 26.9081L28.2437 26.735C27.7242 26.6288 27.1837 26.717 26.7249 26.983C26.2662 27.249 25.921 27.6741 25.755 28.1777L25.4809 28.9857H23.6342L23.3745 28.1633C23.2084 27.6597 22.8633 27.2345 22.4045 26.9686C21.9457 26.7026 21.4053 26.6144 20.8857 26.7206L20.0345 26.8937L19.0967 25.2995L19.6738 24.6502C20.0287 24.2535 20.2249 23.7398 20.2249 23.2075C20.2249 22.6752 20.0287 22.1615 19.6738 21.7647L19.0967 21.1155L20.0201 19.5285L20.8713 19.7016C21.3908 19.8078 21.9313 19.7196 22.3901 19.4536C22.8489 19.1877 23.194 18.7625 23.36 18.2589L23.6342 17.4437H25.4809L25.755 18.2661C25.921 18.7697 26.2662 19.1949 26.7249 19.4608C27.1837 19.7268 27.7242 19.815 28.2437 19.7088L29.0949 19.5357L30.0183 21.1371L29.4412 21.7864C29.0903 22.1822 28.8965 22.6929 28.8965 23.2219C28.8965 23.7509 29.0903 24.2616 29.4412 24.6574ZM24.5575 20.3292C23.9868 20.3292 23.4289 20.4984 22.9544 20.8155C22.4799 21.1326 22.1101 21.5832 21.8917 22.1105C21.6733 22.6377 21.6161 23.2179 21.7275 23.7776C21.8388 24.3374 22.1136 24.8515 22.5172 25.255C22.9207 25.6586 23.4348 25.9334 23.9946 26.0447C24.5543 26.1561 25.1345 26.0989 25.6617 25.8805C26.189 25.6621 26.6396 25.2923 26.9567 24.8178C27.2738 24.3433 27.443 23.7854 27.443 23.2147C27.443 22.4494 27.139 21.7155 26.5979 21.1744C26.0567 20.6332 25.3228 20.3292 24.5575 20.3292ZM24.5575 24.6574C24.2722 24.6574 23.9932 24.5728 23.756 24.4143C23.5187 24.2558 23.3338 24.0304 23.2246 23.7668C23.1154 23.5032 23.0868 23.2131 23.1425 22.9332C23.1982 22.6534 23.3356 22.3963 23.5373 22.1945C23.7391 21.9928 23.9962 21.8553 24.276 21.7997C24.5559 21.744 24.846 21.7726 25.1096 21.8818C25.3732 21.991 25.5986 22.1759 25.7571 22.4132C25.9156 22.6504 26.0003 22.9294 26.0003 23.2147C26.0003 23.5973 25.8482 23.9643 25.5777 24.2349C25.3071 24.5054 24.9401 24.6574 24.5575 24.6574Z" fill="#0F6595"/>
</svg>
