<svg width="39" height="39" viewBox="0 0 39 39" fill="none" xmlns="http://www.w3.org/2000/svg">
<rect x="0.333374" y="0.5" width="38" height="38" rx="19" fill="url(#paint0_linear_40005093_89345)"/>
<g clip-path="url(#clip0_40005093_89345)">
<path fill-rule="evenodd" clip-rule="evenodd" d="M20.0833 7.75C19.8181 7.75 19.5638 7.85536 19.3762 8.04289C19.1887 8.23043 19.0833 8.48478 19.0833 8.75V10.25C19.0833 10.5152 19.1887 10.7696 19.3762 10.9571C19.5638 11.1446 19.8181 11.25 20.0833 11.25C20.3485 11.25 20.6029 11.1446 20.7904 10.9571C20.978 10.7696 21.0833 10.5152 21.0833 10.25V8.75C21.0833 8.48478 20.978 8.23043 20.7904 8.04289C20.6029 7.85536 20.3485 7.75 20.0833 7.75ZM11.5833 18.25C11.3181 18.25 11.0638 18.1446 10.8762 17.9571C10.6887 17.7696 10.5833 17.5152 10.5833 17.25C10.5833 16.9848 10.6887 16.7304 10.8762 16.5429C11.0638 16.3554 11.3181 16.25 11.5833 16.25H13.0833C13.3485 16.25 13.6029 16.3554 13.7904 16.5429C13.978 16.7304 14.0833 16.9848 14.0833 17.25C14.0833 17.5152 13.978 17.7696 13.7904 17.9571C13.6029 18.1446 13.3485 18.25 13.0833 18.25H11.5833ZM28.5833 18.25C28.8485 18.25 29.1029 18.1446 29.2904 17.9571C29.478 17.7696 29.5833 17.5152 29.5833 17.25C29.5833 16.9848 29.478 16.7304 29.2904 16.5429C29.1029 16.3554 28.8485 16.25 28.5833 16.25H27.0833C26.8181 16.25 26.5638 16.3554 26.3762 16.5429C26.1887 16.7304 26.0833 16.9848 26.0833 17.25C26.0833 17.5152 26.1887 17.7696 26.3762 17.9571C26.5638 18.1446 26.8181 18.25 27.0833 18.25H28.5833ZM13.3653 11.9475C13.1778 11.7599 13.0725 11.5055 13.0726 11.2403C13.0726 10.9751 13.178 10.7208 13.3656 10.5333C13.5532 10.3457 13.8075 10.2404 14.0728 10.2405C14.338 10.2405 14.5923 10.3459 14.7798 10.5335L15.8403 11.5935C15.9332 11.6863 16.007 11.7966 16.0573 11.9179C16.1076 12.0392 16.1335 12.1693 16.1335 12.3006C16.1336 12.432 16.1078 12.5621 16.0575 12.6834C16.0073 12.8048 15.9337 12.9151 15.8408 13.008C15.748 13.1009 15.6377 13.1746 15.5164 13.2249C15.3951 13.2752 15.265 13.3012 15.1337 13.3012C15.0023 13.3012 14.8723 13.2754 14.7509 13.2252C14.6295 13.175 14.5192 13.1013 14.4263 13.0085L13.3653 11.9475ZM26.8003 10.5335C26.9878 10.721 27.0931 10.9753 27.0931 11.2405C27.0931 11.5057 26.9878 11.76 26.8003 11.9475L25.7393 13.008C25.6471 13.1035 25.5367 13.1797 25.4147 13.2321C25.2927 13.2845 25.1615 13.3121 25.0287 13.3133C24.896 13.3144 24.7643 13.2891 24.6414 13.2388C24.5185 13.1885 24.4068 13.1143 24.3129 13.0204C24.219 12.9265 24.1448 12.8149 24.0945 12.692C24.0442 12.5691 24.0189 12.4374 24.0201 12.3046C24.0212 12.1718 24.0488 12.0406 24.1012 11.9186C24.1536 11.7966 24.2298 11.6862 24.3253 11.594L25.3858 10.5335C25.4787 10.4406 25.5889 10.3669 25.7103 10.3166C25.8317 10.2663 25.9617 10.2405 26.0931 10.2405C26.2244 10.2405 26.3545 10.2663 26.4759 10.3166C26.5972 10.3669 26.7075 10.4406 26.8003 10.5335ZM19.8578 12.52C20.0046 12.3858 20.1987 12.3154 20.3974 12.3243C20.5961 12.3333 20.7831 12.4207 20.9173 12.5675L20.9188 12.569L20.9203 12.571L20.9253 12.576L20.9403 12.593L20.9903 12.6515C21.0337 12.7015 21.095 12.776 21.1743 12.875C21.3338 13.075 21.5668 13.379 21.8733 13.812C22.4858 14.677 23.3943 16.0575 24.5963 18.14C25.7988 20.222 26.5398 21.6985 26.9828 22.6625C27.147 23.0159 27.3011 23.3738 27.4448 23.736C27.4895 23.8496 27.5318 23.9642 27.5718 24.0795L27.5788 24.101L27.5813 24.108L27.5823 24.1115V24.1125C27.64 24.3003 27.6217 24.5032 27.5313 24.6776C27.441 24.852 27.2858 24.9841 27.0992 25.0453C26.9125 25.1065 26.7093 25.0921 26.5332 25.0051C26.3571 24.9181 26.2221 24.7654 26.1573 24.58C25.5348 24.789 24.9023 24.995 24.2663 25.1965C24.0673 24.7118 23.8578 24.2315 23.6378 23.756C23.0218 22.4283 22.3467 21.1288 21.6143 19.8615C20.8833 18.5937 20.0958 17.3593 19.2543 16.162C18.9527 15.7343 18.6418 15.3132 18.3218 14.899C18.8143 14.449 19.3088 14.004 19.8013 13.5695C19.6713 13.4221 19.6044 13.2295 19.615 13.0332C19.6256 12.8369 19.7128 12.6526 19.8578 12.52ZM22.7628 25.485C22.7855 25.538 22.8077 25.591 22.8293 25.644C21.8093 25.9565 20.7943 26.256 19.8133 26.537L19.9518 27.053C20.1781 27.8972 20.0596 28.7968 19.6226 29.5537C19.1856 30.3107 18.4658 30.863 17.6216 31.0893C16.7773 31.3155 15.8778 31.1971 15.1208 30.7601C14.3639 30.3231 13.8116 29.6033 13.5853 28.759L13.4523 28.263C12.9623 28.388 12.5423 28.4945 12.2073 28.578C11.3828 28.784 10.4848 28.506 9.95583 27.787C9.76583 27.528 9.55333 27.222 9.38233 26.925C9.21225 26.6244 9.05869 26.3148 8.92233 25.9975C8.56433 25.18 8.77233 24.263 9.36333 23.652C10.6683 22.302 13.8093 19.094 17.2153 15.92L17.3188 16.055C17.4863 16.276 17.7298 16.604 18.0283 17.027C18.8438 18.1873 19.6069 19.3835 20.3153 20.612C21.025 21.8398 21.6793 23.0987 22.2763 24.385C22.4938 24.855 22.6563 25.23 22.7633 25.485H22.7628ZM15.3878 27.758L15.5173 28.241C15.5613 28.4053 15.6372 28.5594 15.7408 28.6943C15.8443 28.8293 15.9734 28.9426 16.1207 29.0276C16.268 29.1127 16.4306 29.168 16.5992 29.1902C16.7679 29.2124 16.9393 29.2012 17.1036 29.1572C17.2679 29.1133 17.4219 29.0373 17.5569 28.9338C17.6919 28.8303 17.8051 28.7012 17.8902 28.5539C17.9753 28.4066 18.0305 28.244 18.0528 28.0753C18.075 27.9067 18.0638 27.7353 18.0198 27.571L17.8883 27.08C16.9948 27.3275 16.1523 27.555 15.3878 27.758Z" fill="white"/>
</g>
<defs>
<linearGradient id="paint0_linear_40005093_89345" x1="17.75" y1="0.5" x2="17.75" y2="38.5" gradientUnits="userSpaceOnUse">
<stop stop-color="#2291F5"/>
<stop offset="1" stop-color="#2EA9E1"/>
</linearGradient>
<clipPath id="clip0_40005093_89345">
<rect width="24" height="24" fill="white" transform="translate(7.33337 7.5)"/>
</clipPath>
</defs>
</svg>
