<svg width="38" height="39" viewBox="0 0 38 39" fill="none" xmlns="http://www.w3.org/2000/svg">
<rect y="0.5" width="38" height="38" rx="19" fill="url(#paint0_linear_40005093_89323)"/>
<path d="M10.778 11.155C10.597 11.515 10.508 11.961 10.33 12.851L9.73202 15.841C9.64727 16.2487 9.64662 16.6694 9.73009 17.0773C9.81357 17.4852 9.97943 17.8718 10.2175 18.2135C10.4556 18.5551 10.7609 18.8445 11.1147 19.064C11.4685 19.2835 11.8634 19.4285 12.2752 19.4901C12.6871 19.5518 13.1071 19.5287 13.5097 19.4223C13.9123 19.3159 14.2889 19.1285 14.6165 18.8715C14.9441 18.6145 15.2159 18.2934 15.4151 17.9277C15.6143 17.5621 15.7368 17.1596 15.775 16.745L15.845 16.055C15.8071 16.4938 15.8612 16.9358 16.0037 17.3525C16.1463 17.7693 16.3742 18.1517 16.673 18.4754C16.9717 18.7991 17.3347 19.0569 17.7387 19.2324C18.1427 19.4078 18.5789 19.4971 19.0194 19.4944C19.4598 19.4918 19.8949 19.3973 20.2968 19.217C20.6986 19.0366 21.0585 18.7745 21.3533 18.4472C21.6481 18.1199 21.8714 17.7348 22.0089 17.3163C22.1465 16.8979 22.1952 16.4554 22.152 16.017L22.225 16.745C22.2633 17.1596 22.3858 17.5621 22.585 17.9277C22.7842 18.2934 23.0559 18.6145 23.3835 18.8715C23.7112 19.1285 24.0878 19.3159 24.4904 19.4223C24.8929 19.5287 25.313 19.5518 25.7248 19.4901C26.1366 19.4285 26.5315 19.2835 26.8853 19.064C27.2392 18.8445 27.5445 18.5551 27.7825 18.2135C28.0206 17.8718 28.1865 17.4852 28.27 17.0773C28.3534 16.6694 28.3528 16.2487 28.268 15.841L27.67 12.851C27.492 11.961 27.403 11.516 27.222 11.155C27.0334 10.779 26.7679 10.4469 26.4426 10.1803C26.1174 9.91356 25.7397 9.71826 25.334 9.607C24.944 9.5 24.49 9.5 23.582 9.5H14.418C13.51 9.5 13.056 9.5 12.666 9.607C12.2604 9.71826 11.8827 9.91356 11.5574 10.1803C11.2322 10.4469 10.9666 10.779 10.778 11.155ZM25.269 21C26.0503 21.002 26.8189 20.8018 27.5 20.419V21.5C27.5 25.271 27.5 27.157 26.328 28.328C25.385 29.272 23.98 29.455 21.5 29.491V26C21.5 25.065 21.5 24.598 21.299 24.25C21.1674 24.022 20.978 23.8326 20.75 23.701C20.402 23.5 19.935 23.5 19 23.5C18.065 23.5 17.598 23.5 17.25 23.701C17.022 23.8326 16.8327 24.022 16.701 24.25C16.5 24.598 16.5 25.065 16.5 26V29.491C14.02 29.455 12.615 29.271 11.672 28.328C10.5 27.157 10.5 25.271 10.5 21.5V20.419C11.1814 20.802 11.9504 21.0021 12.732 21C13.8877 21.0007 15.0003 20.5617 15.844 19.772C16.7037 20.5643 17.8309 21.0029 19 21C20.1692 21.0029 21.2963 20.5643 22.156 19.772C22.9998 20.5617 24.1134 21.0007 25.269 21Z" fill="white"/>
<defs>
<linearGradient id="paint0_linear_40005093_89323" x1="17.4167" y1="0.5" x2="17.4167" y2="38.5" gradientUnits="userSpaceOnUse">
<stop stop-color="#2291F5"/>
<stop offset="1" stop-color="#2EA9E1"/>
</linearGradient>
</defs>
</svg>
