<svg width="30" height="30" viewBox="0 0 30 30" fill="none" xmlns="http://www.w3.org/2000/svg">
<g clip-path="url(#clip0_40005093_89466)">
<path d="M27.8458 15.498C27.6489 15.1954 27.6489 14.8046 27.8458 14.502L28.9414 12.818C29.9393 11.2842 29.2669 9.22344 27.5613 8.57054L25.6851 7.85218C25.348 7.72304 25.1181 7.40681 25.0996 7.04629L24.9962 5.04005C24.902 3.21287 23.1468 1.94034 21.3829 2.41495L19.443 2.93655C19.0944 3.03018 18.7226 2.90942 18.4957 2.6287L17.2327 1.0663C16.0825 -0.356577 13.9148 -0.354292 12.7665 1.0663L11.5035 2.62876C11.2766 2.90954 10.9048 3.03018 10.5562 2.93661L8.61613 2.41501C6.84877 1.9397 5.09683 3.21645 5.00285 5.04011L4.89943 7.04635C4.8808 7.40681 4.65105 7.7231 4.31396 7.85218L2.43792 8.57054C0.728692 9.22479 0.0616646 11.2872 1.05769 12.8181L2.15333 14.502C2.35015 14.8045 2.35015 15.1955 2.15333 15.498L1.05787 17.1819C0.0597896 18.7159 0.732442 20.7767 2.43798 21.4294L4.31414 22.1478C4.65123 22.2769 4.88103 22.5932 4.89961 22.9537L5.00302 24.9599C5.09724 26.7875 6.8527 28.0595 8.6163 27.585L10.5563 27.0634C10.905 26.9699 11.2767 27.0906 11.5036 27.3713L12.7666 28.9336C13.9171 30.3569 16.0846 30.354 17.2328 28.9336L18.4957 27.3713C18.7226 27.0906 19.0946 26.97 19.443 27.0634L21.3831 27.585C23.15 28.0605 24.9023 26.7838 24.9964 24.9599L25.0998 22.9537C25.1184 22.5932 25.3482 22.2769 25.6853 22.1479L27.5613 21.4295C29.2704 20.7752 29.9375 18.7129 28.9416 17.1819L27.8458 15.498ZM26.8611 19.6007L24.9849 20.319C23.925 20.7249 23.2024 21.7194 23.144 22.8528L23.0406 24.859C23.0107 25.4403 22.4525 25.8446 21.8915 25.6939L19.9514 25.1723C18.8554 24.8775 17.6861 25.2576 16.9727 26.1402L15.7099 27.7025C15.3439 28.1551 14.6546 28.1542 14.2894 27.7025L13.0266 26.1402C12.4736 25.456 11.6467 25.0739 10.7923 25.0739C10.5445 25.0739 10.2943 25.106 10.0478 25.1723L8.10771 25.6939C7.54545 25.8449 6.98858 25.4392 6.95858 24.859L6.85516 22.8528C6.79674 21.7194 6.07411 20.7248 5.01427 20.319L3.13811 19.6006C2.59454 19.3925 2.38249 18.7367 2.69925 18.2499L3.79483 16.566C4.41375 15.6146 4.41375 14.3852 3.79483 13.434L2.69925 11.7501C2.38179 11.2623 2.59565 10.607 3.13817 10.3993L5.01433 9.68094C6.07423 9.27512 6.7968 8.28056 6.85522 7.14719L6.95864 5.14095C6.98858 4.55964 7.54668 4.15535 8.10777 4.30605L10.0479 4.82765C11.1438 5.12243 12.3131 4.7424 13.0265 3.8598L14.2895 2.29741C14.6554 1.84484 15.3448 1.84577 15.7099 2.29741L16.9728 3.85986C17.6864 4.74245 18.8554 5.12249 19.9515 4.82765L21.8916 4.30605C22.4538 4.15506 23.0107 4.56082 23.0407 5.14095L23.144 7.14719C23.2024 8.28056 23.9251 9.27518 24.9849 9.68094L26.8611 10.3994C27.4046 10.6074 27.6167 11.2633 27.3 11.7501L26.2045 13.434C25.5854 14.3852 25.5854 15.6146 26.2044 16.566L27.3 18.2498C27.6173 18.7378 27.4036 19.393 26.8611 19.6007Z" fill="#0F6595"/>
<path d="M11.2502 20.7601V9.00183H14.4004V7.5H15.7191V9.02015C17.0134 9.09341 17.9596 9.36813 18.5579 9.84432C19.1562 10.3205 19.4554 11.0104 19.4554 11.9139C19.4554 12.5977 19.2539 13.1777 18.851 13.6538C18.448 14.1178 17.8986 14.4048 17.2026 14.5147V14.6062C17.923 14.7283 18.5213 15.0031 18.9975 15.4304C19.4859 15.8578 19.7301 16.511 19.7301 17.3901C19.7301 18.4524 19.3638 19.2827 18.6312 19.881C17.8986 20.467 16.9279 20.7601 15.7191 20.7601V22.5H14.4004V20.7601H11.2502ZM13.2649 13.6722H14.4004V11.0165H13.2649V13.6722ZM17.2026 12.2802C17.2026 11.5354 16.7081 11.1203 15.7191 11.0348V13.6538C16.2686 13.6172 16.6532 13.4768 16.873 13.2326C17.0927 12.9884 17.2026 12.6709 17.2026 12.2802ZM13.2649 18.7088H14.4004V15.6319H13.2649V18.7088ZM17.459 17.1337C17.459 16.743 17.3308 16.4072 17.0744 16.1264C16.8302 15.8333 16.3784 15.6746 15.7191 15.6502V18.7088C16.3662 18.6844 16.818 18.5256 17.0744 18.2326C17.3308 17.9396 17.459 17.5733 17.459 17.1337Z" fill="#1C9AD6"/>
</g>
<defs>
<clipPath id="clip0_40005093_89466">
<rect width="30" height="30" fill="white"/>
</clipPath>
</defs>
</svg>
