<svg width="66" height="66" viewBox="0 0 66 66" fill="none" xmlns="http://www.w3.org/2000/svg">
<g filter="url(#filter0_d_40005093_89376)">
<rect x="14" y="15" width="38" height="38" rx="19" fill="url(#paint0_linear_40005093_89376)" shape-rendering="crispEdges"/>
<g clip-path="url(#clip0_40005093_89376)">
<path d="M43.277 34.3984C43.1195 34.1563 43.1195 33.8437 43.277 33.6016L44.1535 32.2544C44.9518 31.0273 44.4139 29.3788 43.0494 28.8564L41.5484 28.2817C41.2788 28.1784 41.0949 27.9255 41.0801 27.637L40.9973 26.032C40.922 24.5703 39.5178 23.5523 38.1067 23.932L36.5547 24.3492C36.2759 24.4241 35.9784 24.3275 35.7969 24.103L34.7865 22.853C33.8663 21.7147 32.1322 21.7166 31.2136 22.853L30.2032 24.103C30.0217 24.3276 29.7242 24.4241 29.4453 24.3493L27.8933 23.932C26.4794 23.5518 25.0778 24.5732 25.0026 26.0321L24.9199 27.6371C24.905 27.9255 24.7212 28.1785 24.4515 28.2817L22.9507 28.8564C21.5833 29.3798 21.0497 31.0298 21.8465 32.2545L22.723 33.6016C22.8805 33.8436 22.8805 34.1564 22.723 34.3984L21.8467 35.7455C21.0482 36.9727 21.5863 38.6214 22.9507 39.1436L24.4517 39.7182C24.7213 39.8216 24.9052 40.0745 24.9201 40.363L25.0028 41.9679C25.0782 43.43 26.4825 44.4476 27.8934 44.068L29.4454 43.6507C29.7243 43.5759 30.0217 43.6725 30.2033 43.897L31.2136 45.1469C32.134 46.2855 33.8681 46.2832 34.7866 45.1469L35.797 43.897C35.9785 43.6725 36.2761 43.576 36.5548 43.6507L38.1068 44.068C39.5204 44.4484 40.9222 43.4271 40.9975 41.9679L41.0802 40.363C41.0951 40.0746 41.2789 39.8216 41.5486 39.7183L43.0494 39.1436C44.4167 38.6202 44.9504 36.9703 44.1536 35.7455L43.277 34.3984ZM42.4892 37.6805L40.9883 38.2552C40.1404 38.5799 39.5623 39.3755 39.5156 40.2822L39.4328 41.8872C39.4089 42.3523 38.9624 42.6757 38.5135 42.5551L36.9615 42.1379C36.0847 41.902 35.1492 42.2061 34.5785 42.9121L33.5682 44.162C33.2755 44.5241 32.7241 44.5234 32.4319 44.162L31.4216 42.9121C30.9792 42.3648 30.3177 42.0591 29.6342 42.0591C29.436 42.0591 29.2358 42.0848 29.0386 42.1379L27.4865 42.5551C27.0367 42.6759 26.5912 42.3513 26.5672 41.8872L26.4845 40.2822C26.4378 39.3755 25.8597 38.5798 25.0118 38.2552L23.5109 37.6805C23.076 37.514 22.9064 36.9894 23.1598 36.5999L24.0362 35.2528C24.5314 34.4917 24.5314 33.5082 24.0362 32.7472L23.1598 31.4001C22.9058 31.0098 23.0769 30.4856 23.5109 30.3194L25.0118 29.7448C25.8597 29.4201 26.4378 28.6244 26.4845 27.7177L26.5673 26.1128C26.5912 25.6477 27.0377 25.3243 27.4866 25.4448L29.0387 25.8621C29.9154 26.0979 30.8508 25.7939 31.4216 25.0878L32.432 23.8379C32.7247 23.4759 33.2762 23.4766 33.5682 23.8379L34.5786 25.0879C35.1495 25.794 36.0847 26.098 36.9616 25.8621L38.5136 25.4448C38.9634 25.324 39.4089 25.6487 39.4329 26.1128L39.5156 27.7177C39.5623 28.6244 40.1404 29.4201 40.9883 29.7448L42.4893 30.3195C42.9241 30.4859 43.0937 31.0106 42.8404 31.4001L41.9639 32.7472C41.4687 33.5082 41.4687 34.4917 41.9639 35.2528L42.8404 36.5999C43.0942 36.9902 42.9232 37.5144 42.4892 37.6805Z" fill="white"/>
<path d="M42.4892 37.6805L40.9883 38.2552C40.1404 38.5799 39.5623 39.3755 39.5156 40.2822L39.4328 41.8872C39.4089 42.3523 38.9624 42.6757 38.5135 42.5551L36.9615 42.1379C36.0847 41.902 35.1492 42.2061 34.5785 42.9121L33.5682 44.162C33.2755 44.5241 32.7241 44.5234 32.4319 44.162L31.4216 42.9121C30.9792 42.3648 30.3177 42.0591 29.6342 42.0591C29.436 42.0591 29.2358 42.0848 29.0386 42.1379L27.4865 42.5551C27.0367 42.6759 26.5912 42.3513 26.5672 41.8872L26.4845 40.2822C26.4378 39.3755 25.8597 38.5798 25.0118 38.2552L23.5109 37.6805C23.076 37.514 22.9064 36.9894 23.1598 36.5999L24.0362 35.2528C24.5314 34.4917 24.5314 33.5082 24.0362 32.7472L23.1598 31.4001C22.9058 31.0098 23.0769 30.4856 23.5109 30.3194L25.0118 29.7448C25.8597 29.4201 26.4378 28.6244 26.4845 27.7177L26.5673 26.1128C26.5912 25.6477 27.0377 25.3243 27.4866 25.4448L29.0387 25.8621C29.9154 26.0979 30.8508 25.7939 31.4216 25.0878L32.432 23.8379C32.7247 23.4759 33.2762 23.4766 33.5682 23.8379L34.5786 25.0879C35.1495 25.794 36.0847 26.098 36.9616 25.8621L38.5136 25.4448C38.9634 25.324 39.4089 25.6487 39.4329 26.1128L39.5156 27.7177C39.5623 28.6244 40.1404 29.4201 40.9883 29.7448L42.4893 30.3195C42.9241 30.4859 43.0937 31.0106 42.8404 31.4001L41.9639 32.7472C41.4687 33.5082 41.4687 34.4917 41.9639 35.2528L42.8404 36.5999C43.0942 36.9902 42.9232 37.5144 42.4892 37.6805Z" fill="white"/>
<path d="M30.0001 38.6081V29.2015H32.5203V28H33.5752V29.2161C34.6106 29.2747 35.3676 29.4945 35.8463 29.8755C36.3249 30.2564 36.5642 30.8083 36.5642 31.5311C36.5642 32.0781 36.4031 32.5421 36.0807 32.9231C35.7584 33.2943 35.3188 33.5238 34.762 33.6117V33.685C35.3383 33.7827 35.817 34.0024 36.1979 34.3443C36.5886 34.6862 36.784 35.2088 36.784 35.9121C36.784 36.7619 36.491 37.4261 35.9049 37.9048C35.3188 38.3736 34.5422 38.6081 33.5752 38.6081V40H32.5203V38.6081H30.0001ZM31.6118 32.9377H32.5203V30.8132H31.6118V32.9377ZM34.762 31.8242C34.762 31.2283 34.3664 30.8962 33.5752 30.8278V32.9231C34.0148 32.8938 34.3225 32.7814 34.4983 32.5861C34.6741 32.3907 34.762 32.1368 34.762 31.8242ZM31.6118 36.967H32.5203V34.5055H31.6118V36.967ZM34.9672 35.707C34.9672 35.3944 34.8646 35.1258 34.6595 34.9011C34.4641 34.6667 34.1027 34.5397 33.5752 34.5201V36.967C34.0929 36.9475 34.4543 36.8205 34.6595 36.5861C34.8646 36.3516 34.9672 36.0586 34.9672 35.707Z" fill="url(#paint1_linear_40005093_89376)"/>
</g>
</g>
<defs>
<filter id="filter0_d_40005093_89376" x="0.8" y="0.8" width="64.4" height="64.4" filterUnits="userSpaceOnUse" color-interpolation-filters="sRGB">
<feFlood flood-opacity="0" result="BackgroundImageFix"/>
<feColorMatrix in="SourceAlpha" type="matrix" values="0 0 0 0 0 0 0 0 0 0 0 0 0 0 0 0 0 0 127 0" result="hardAlpha"/>
<feOffset dy="-1"/>
<feGaussianBlur stdDeviation="6.6"/>
<feComposite in2="hardAlpha" operator="out"/>
<feColorMatrix type="matrix" values="0 0 0 0 0.164706 0 0 0 0 0.694118 0 0 0 0 0.396078 0 0 0 0.32 0"/>
<feBlend mode="normal" in2="BackgroundImageFix" result="effect1_dropShadow_40005093_89376"/>
<feBlend mode="normal" in="SourceGraphic" in2="effect1_dropShadow_40005093_89376" result="shape"/>
</filter>
<linearGradient id="paint0_linear_40005093_89376" x1="33" y1="15" x2="33" y2="53" gradientUnits="userSpaceOnUse">
<stop stop-color="#239E62"/>
<stop offset="1" stop-color="#2CB766"/>
</linearGradient>
<linearGradient id="paint1_linear_40005093_89376" x1="33.3921" y1="28" x2="33.3921" y2="40" gradientUnits="userSpaceOnUse">
<stop stop-color="#239E62"/>
<stop offset="1" stop-color="#2CB766"/>
</linearGradient>
<clipPath id="clip0_40005093_89376">
<rect width="24" height="24" fill="white" transform="translate(21 22)"/>
</clipPath>
</defs>
</svg>
