<svg width="150" height="151" viewBox="0 0 150 151" fill="none" xmlns="http://www.w3.org/2000/svg">
<path d="M105.858 30.8125C106.237 30.8125 106.544 31.1189 106.544 31.4971V100.625C96.8217 98.3401 85.0817 96.9512 70.9619 96.9512C60.688 96.9512 51.5179 98.1067 43.459 100.074V31.4971C43.459 31.1189 43.7663 30.8125 44.1445 30.8125H105.858Z" fill="url(#paint0_linear_40006118_80110)"/>
<rect opacity="0.800525" x="47.4019" y="34.7544" width="55.1986" height="69.3794" rx="0.684841" fill="url(#paint1_linear_40006118_80110)"/>
<rect x="51.1689" y="40.1865" width="47.3131" height="30.7477" fill="url(#paint2_linear_40006118_80110)"/>
<rect x="51.3438" y="75.752" width="47.3131" height="4.73042" fill="url(#paint3_linear_40006118_80110)"/>
<rect x="51.3438" y="86.79" width="47.3131" height="4.73042" fill="url(#paint4_linear_40006118_80110)"/>
<rect x="56.8628" y="30.0249" width="36.2734" height="6.30722" fill="#D8DDE2"/>
<path d="M66.4482 26.8711H83.5521L86.0399 30.0247H63.9604L66.4482 26.8711Z" fill="#D0D6DC"/>
<path fill-rule="evenodd" clip-rule="evenodd" d="M86.6249 77.3284C87.5809 77.3509 88.4545 76.8009 88.8303 75.94C89.2062 75.0789 89.0084 74.0807 88.331 73.4197L82.3595 67.5568C81.4456 66.662 79.9636 66.662 79.0497 67.5568C78.1358 68.4516 78.1358 69.9025 79.0497 70.7973L85.0381 76.6436C85.4567 77.064 86.0254 77.3094 86.6249 77.3284Z" fill="#868C93"/>
<path fill-rule="evenodd" clip-rule="evenodd" d="M64.2891 68.4735C60.441 64.646 59.8861 58.6874 62.9634 54.2402C66.0407 49.7929 71.8938 48.0947 76.9449 50.1837C81.9959 52.2728 84.8388 57.5677 83.7359 62.8315C82.633 68.0953 77.8912 71.8632 72.4091 71.8318C69.355 71.8125 66.4341 70.6044 64.2891 68.4735Z" fill="#939AA0"/>
<path fill-rule="evenodd" clip-rule="evenodd" d="M65.8137 54.0497C62.1789 57.6186 62.1823 63.3995 65.8213 66.9643C69.4602 70.5292 75.3578 70.5292 78.9966 66.9643C82.6355 63.3995 82.6388 57.6186 79.0042 54.0497C75.3596 50.4841 69.4581 50.4841 65.8137 54.0497Z" fill="white"/>
<mask id="mask0_40006118_80110" style="mask-type:luminance" maskUnits="userSpaceOnUse" x="63" y="51" width="19" height="19">
<path fill-rule="evenodd" clip-rule="evenodd" d="M65.8137 54.0497C62.1789 57.6186 62.1823 63.3995 65.8213 66.9643C69.4602 70.5292 75.3578 70.5292 78.9966 66.9643C82.6355 63.3995 82.6388 57.6186 79.0042 54.0497C75.3596 50.4841 69.4581 50.4841 65.8137 54.0497Z" fill="white"/>
</mask>
<g mask="url(#mask0_40006118_80110)">
<path d="M80.8561 53.8692C80.8561 62.7266 76.5413 69.5682 70.3708 73.4318C64.2003 77.2955 81.7206 70.9332 81.7206 70.9332L85.1829 58.7432C85.1829 58.7432 80.8561 45.0119 80.8561 53.8692Z" fill="url(#paint5_linear_40006118_80110)"/>
</g>
<path d="M149.376 139.909C152.994 132.75 142.654 96.9521 70.9613 96.9521C19.2137 96.9521 -4.53707 126.253 0.713754 141.103L149.376 139.909Z" fill="url(#paint6_radial_40006118_80110)"/>
<mask id="mask1_40006118_80110" style="mask-type:luminance" maskUnits="userSpaceOnUse" x="0" y="96" width="150" height="46">
<path d="M149.376 139.909C152.994 132.75 142.654 96.9521 70.9613 96.9521C19.2137 96.9521 -4.53707 126.253 0.713754 141.103L149.376 139.909Z" fill="white"/>
</mask>
<g mask="url(#mask1_40006118_80110)">
<ellipse opacity="0.671968" cx="66.3265" cy="105.448" rx="3.94276" ry="2.19001" fill="url(#paint7_linear_40006118_80110)"/>
<ellipse opacity="0.729957" cx="100.147" cy="113.684" rx="6.22079" ry="3.41641" fill="url(#paint8_linear_40006118_80110)"/>
<ellipse opacity="0.729957" cx="29.3512" cy="104.573" rx="6.22079" ry="3.41641" fill="url(#paint9_linear_40006118_80110)"/>
</g>
<path d="M100.032 103.824L113.472 109.076L116.558 104.661L103.036 101.516L100.032 103.824Z" fill="url(#paint10_linear_40006118_80110)"/>
<path d="M99.3004 81.3326L108.534 82.0604L106.483 102.144C106.483 102.144 106.304 102.345 105.868 102.267C105.432 102.189 104.975 101.947 104.975 101.947L103.602 85.9806C103.602 85.9806 102.808 91.6262 102.863 93.2146C102.905 94.4112 103.314 95.8712 103.533 97.1198C103.722 98.1945 104.118 100.763 104.118 100.763C104.118 100.763 103.65 100.977 103.401 101.025C103.151 101.073 102.832 100.808 102.832 100.808C102.832 100.808 99.5947 94.5236 99.553 93.3302C99.5114 92.1368 99.3004 81.3326 99.3004 81.3326Z" fill="url(#paint11_linear_40006118_80110)"/>
<path d="M102.689 100.777C102.689 100.777 102.277 101.518 101.766 101.969C101.256 102.421 100.248 102.96 100.018 103.205C99.7879 103.45 100.039 103.811 100.039 103.811L102.51 103.724L104.484 102.054L104.208 100.463L102.689 100.777Z" fill="#677285"/>
<path d="M106.715 101.636L107.292 103.236C107.292 103.236 106.344 103.969 105.036 104.173C103.727 104.377 102.825 104.064 102.825 104.064C102.825 104.064 102.589 103.588 103.034 103.384C103.239 103.291 103.697 102.902 104.1 102.405C104.281 102.18 104.966 101.697 104.966 101.697L106.715 101.636Z" fill="#677285"/>
<path d="M110.851 70.8621C110.851 70.8621 111.608 72.0134 112.072 71.7053C112.536 71.3973 115.433 68.4281 115.433 68.4281C115.433 68.4281 116.294 67.7647 116.454 67.9224C116.613 68.0801 116.166 68.4281 116.166 68.4281C116.166 68.4281 117.107 68.5204 117.401 68.5204C117.694 68.5204 118.312 68.9896 117.908 69.1474C117.504 69.3053 115.937 69.3443 115.937 69.3443C115.937 69.3443 113.557 73.8449 112.316 74.164C111.076 74.4831 109.368 72.6783 109.368 72.6783L110.851 70.8621Z" fill="#FDE7E6"/>
<path d="M98.7598 70.9447C98.7598 70.9447 98.2636 71.9607 97.8139 71.7169C97.3643 71.4732 94.8414 68.8126 94.8414 68.8126C94.8414 68.8126 94.0012 68.298 93.7958 68.3906C93.5903 68.4832 94.0968 68.8126 94.0968 68.8126C94.0968 68.8126 92.8607 68.9129 92.6282 69.0063C92.3956 69.0998 92.1248 69.3864 92.4764 69.5167C92.828 69.647 94.1738 69.7397 94.1738 69.7397C94.1738 69.7397 96.0447 73.4367 97.4622 73.869C98.8797 74.3013 100.087 72.598 100.087 72.598L98.7598 70.9447Z" fill="#FDE7E6"/>
<path d="M103.348 67.8337V66.0173C103.348 66.0173 102.407 66.065 102.024 65.4343C101.641 64.8037 101.538 63.0141 101.538 63.0141L101.826 62.1843L104.663 62.0645L106.153 63.3344L105.459 64.5599L105.327 64.7955L105.988 67.5807L103.348 67.8337Z" fill="#FDE7E6"/>
<mask id="mask2_40006118_80110" style="mask-type:luminance" maskUnits="userSpaceOnUse" x="101" y="62" width="6" height="6">
<path d="M103.348 67.8337V66.0173C103.348 66.0173 102.407 66.065 102.024 65.4343C101.641 64.8037 101.538 63.0141 101.538 63.0141L101.826 62.1843L104.663 62.0645L106.153 63.3344L105.459 64.5599L105.327 64.7955L105.988 67.5807L103.348 67.8337Z" fill="white"/>
</mask>
<g mask="url(#mask2_40006118_80110)">
<path d="M105.193 64.2913C104.355 65.3339 102.905 66.0626 102.716 66.0626C102.528 66.0626 103.771 67.3702 103.771 67.3702L104.782 67.8339L106.217 67.5295L106.73 66.0626L105.825 64.3982C105.825 64.3982 106.032 63.2487 105.193 64.2913Z" fill="url(#paint12_linear_40006118_80110)"/>
</g>
<path d="M98.1567 71.6748L99.5507 73.5525L100.44 72.6136C100.44 72.6136 99.7636 76.321 99.5507 78.099C99.3378 79.8771 99.2983 81.6481 99.2983 81.6481C99.2983 81.6481 101.53 82.4768 103.194 82.6162C104.858 82.7556 108.732 82.3966 108.732 82.3966L108.232 71.9607L109.683 73.3077L111.386 71.3407C111.386 71.3407 108.454 66.8342 107.899 66.5717C107.345 66.3092 105.803 66.5717 105.803 66.5717C105.803 66.5717 104.709 67.8662 104.266 67.8843C103.822 67.9024 102.838 66.5717 102.838 66.5717C102.838 66.5717 101.266 66.3206 100.809 66.8342C100.352 67.3478 98.1567 71.6748 98.1567 71.6748Z" fill="url(#paint13_linear_40006118_80110)"/>
<path d="M101.539 63.0328C101.539 63.0328 101.873 62.1892 102.309 62.3362C102.722 62.4753 103.08 62.8063 103.594 62.9617C104.107 63.117 104.164 62.4191 104.513 62.5369C104.862 62.6548 104.632 63.6815 104.878 63.8727C105.124 64.0639 105.124 62.5369 105.649 62.948C106.173 63.3591 105.101 64.5162 105.101 64.5162C105.101 64.5162 105.239 65.2274 105.283 65.2758C105.327 65.3241 105.322 64.7584 105.322 64.7584C105.322 64.7584 105.823 64.566 106.036 63.6986C106.25 62.8312 106.342 62.4858 106.036 61.8556C105.731 61.2253 105.643 60.7317 104.878 60.4344C104.113 60.1371 103.532 60.2534 102.997 60.4344C102.462 60.6154 102.074 60.9751 101.827 61.3331C101.25 62.1827 101.539 63.0328 101.539 63.0328Z" fill="#4D364F"/>
<defs>
<linearGradient id="paint0_linear_40006118_80110" x1="85.4582" y1="95.3811" x2="85.4582" y2="74.522" gradientUnits="userSpaceOnUse">
<stop stop-color="#F7F7F7"/>
<stop offset="1" stop-color="#E8EAEB"/>
</linearGradient>
<linearGradient id="paint1_linear_40006118_80110" x1="47.4019" y1="34.7544" x2="47.4019" y2="104.134" gradientUnits="userSpaceOnUse">
<stop stop-color="white"/>
<stop offset="0.746404" stop-color="white"/>
<stop offset="1" stop-color="white" stop-opacity="0.697577"/>
</linearGradient>
<linearGradient id="paint2_linear_40006118_80110" x1="51.1689" y1="40.1865" x2="51.1689" y2="70.9342" gradientUnits="userSpaceOnUse">
<stop stop-color="#E8EAEB"/>
<stop offset="1" stop-color="#F0F1F1"/>
</linearGradient>
<linearGradient id="paint3_linear_40006118_80110" x1="51.3438" y1="75.752" x2="51.3438" y2="80.4824" gradientUnits="userSpaceOnUse">
<stop stop-color="#EAECEC"/>
<stop offset="1" stop-color="#F0F1F1"/>
</linearGradient>
<linearGradient id="paint4_linear_40006118_80110" x1="51.3438" y1="86.79" x2="51.3438" y2="91.5205" gradientUnits="userSpaceOnUse">
<stop stop-color="#EAECEC"/>
<stop offset="1" stop-color="#F0F1F1"/>
</linearGradient>
<linearGradient id="paint5_linear_40006118_80110" x1="78.1656" y1="55.3922" x2="70.8582" y2="63.8724" gradientUnits="userSpaceOnUse">
<stop stop-color="#EEEEEE" stop-opacity="0.367499"/>
<stop offset="1" stop-color="#D8D8D8" stop-opacity="0.01"/>
</linearGradient>
<radialGradient id="paint6_radial_40006118_80110" cx="0" cy="0" r="1" gradientUnits="userSpaceOnUse" gradientTransform="translate(65.0555 112.264) rotate(-90) scale(25.6701 268.099)">
<stop stop-color="#EBEDF0" stop-opacity="0.24"/>
<stop offset="0.536775" stop-color="#EBEDF0" stop-opacity="0.845525"/>
<stop offset="1" stop-color="#E0E4E7" stop-opacity="0.01"/>
</radialGradient>
<linearGradient id="paint7_linear_40006118_80110" x1="63.153" y1="104.868" x2="64.3541" y2="107.437" gradientUnits="userSpaceOnUse">
<stop stop-color="#E1E7EA"/>
<stop offset="1" stop-color="#D0D6DC"/>
</linearGradient>
<linearGradient id="paint8_linear_40006118_80110" x1="94.9232" y1="113.364" x2="97.1211" y2="117.949" gradientUnits="userSpaceOnUse">
<stop stop-color="#E1E7EA"/>
<stop offset="1" stop-color="#D0D6DC"/>
</linearGradient>
<linearGradient id="paint9_linear_40006118_80110" x1="25.3847" y1="104.628" x2="26.6283" y2="109.583" gradientUnits="userSpaceOnUse">
<stop stop-color="#FBFBFB"/>
<stop offset="1" stop-color="#D9DFE3"/>
</linearGradient>
<linearGradient id="paint10_linear_40006118_80110" x1="96.3711" y1="105.902" x2="102.018" y2="115.147" gradientUnits="userSpaceOnUse">
<stop stop-color="#B7BFC3"/>
<stop offset="0.487221" stop-color="#D9E2E6"/>
<stop offset="1" stop-color="#E6EDF3" stop-opacity="0.01"/>
</linearGradient>
<linearGradient id="paint11_linear_40006118_80110" x1="109.201" y1="102.181" x2="108.467" y2="81.1713" gradientUnits="userSpaceOnUse">
<stop stop-color="#A1A7B8"/>
<stop offset="1" stop-color="#7B8195"/>
</linearGradient>
<linearGradient id="paint12_linear_40006118_80110" x1="105.591" y1="66.6142" x2="105.591" y2="64.8542" gradientUnits="userSpaceOnUse">
<stop stop-color="#FBD8D6"/>
<stop offset="1" stop-color="#EAC0BE" stop-opacity="0.7"/>
</linearGradient>
<linearGradient id="paint13_linear_40006118_80110" x1="91.4642" y1="73.844" x2="105.373" y2="88.5165" gradientUnits="userSpaceOnUse">
<stop stop-color="#E5E9F0"/>
<stop offset="1" stop-color="#D2DAE8"/>
</linearGradient>
</defs>
</svg>
