<svg width="46" height="46" viewBox="0 0 46 46" fill="none" xmlns="http://www.w3.org/2000/svg">
<g clip-path="url(#clip0_40005093_91730)">
<path d="M45.5 23C45.5 34.2307 37.2717 43.5392 26.5156 45.2267V29.5039H31.7583L32.7559 23H26.5156V18.7795C26.5156 16.9997 27.3875 15.2656 30.1824 15.2656H33.0195V9.72851C33.0195 9.72851 30.4443 9.28906 27.9825 9.28906C22.8436 9.28906 19.4844 12.4039 19.4844 18.043V23H13.7715V29.5039H19.4844V45.2267C8.72832 43.5392 0.5 34.2307 0.5 23C0.5 10.574 10.574 0.5 23 0.5C35.426 0.5 45.5 10.574 45.5 23Z" fill="#1877F2"/>
<path d="M31.7583 29.5039L32.7559 23H26.5156V18.7794C26.5156 17.0001 27.3873 15.2656 30.1823 15.2656H33.0195V9.72852C33.0195 9.72852 30.4447 9.28906 27.983 9.28906C22.8435 9.28906 19.4844 12.4039 19.4844 18.043V23H13.7715V29.5039H19.4844V45.2266C20.6299 45.4063 21.804 45.5 23 45.5C24.196 45.5 25.3701 45.4063 26.5156 45.2266V29.5039H31.7583Z" fill="white"/>
</g>
<defs>
<clipPath id="clip0_40005093_91730">
<rect width="45" height="45" fill="white" transform="translate(0.5 0.5)"/>
</clipPath>
</defs>
</svg>
