<svg width="46" height="46" viewBox="0 0 46 46" fill="none" xmlns="http://www.w3.org/2000/svg">
<g clip-path="url(#clip0_40005093_91745)">
<path d="M23 0.5C10.574 0.5 0.5 10.574 0.5 23C0.5 35.426 10.574 45.5 23 45.5C35.426 45.5 45.5 35.426 45.5 23C45.5 10.574 35.426 0.5 23 0.5Z" fill="#101828"/>
<path d="M25.4617 20.9637L35.0937 9.76733H32.8112L24.4477 19.489L17.7679 9.76733H10.0635L20.1647 24.4682L10.0635 36.2094H12.3461L21.1781 25.9429L28.2325 36.2094H35.9369L25.4611 20.9637H25.4617ZM13.1685 11.4857H16.6744L32.8122 34.5692H29.3063L13.1685 11.4857Z" fill="white"/>
</g>
<defs>
<clipPath id="clip0_40005093_91745">
<rect width="45" height="45" fill="white" transform="translate(0.5 0.5)"/>
</clipPath>
</defs>
</svg>
