<svg width="46" height="46" viewBox="0 0 46 46" fill="none" xmlns="http://www.w3.org/2000/svg">
<g clip-path="url(#clip0_40005093_91733)">
<path d="M23 45.5C35.4264 45.5 45.5 35.4264 45.5 23C45.5 10.5736 35.4264 0.5 23 0.5C10.5736 0.5 0.5 10.5736 0.5 23C0.5 35.4264 10.5736 45.5 23 45.5Z" fill="#39CD00"/>
<path d="M37.0625 22.4887C37.0425 22.7744 37.0058 23.0587 36.9526 23.3401C36.7747 24.4176 36.4104 25.4558 35.8761 26.4083C35.6205 26.8634 34.3906 28.5918 34.0148 29.0469C31.9361 31.55 28.4537 34.4392 22.6344 37.2492C22.5116 37.3085 22.3752 37.334 22.2393 37.3231C22.1034 37.3122 21.9729 37.2652 21.8612 37.1871C21.7494 37.1089 21.6605 37.0024 21.6036 36.8785C21.5468 36.7546 21.5239 36.6178 21.5375 36.4821L21.8315 33.8409C21.8538 33.6389 21.7949 33.4363 21.6679 33.2776C21.5408 33.1189 21.356 33.0171 21.154 32.9946C19.218 32.8009 17.3322 32.2633 15.5852 31.4068C11.5966 29.4355 8.9375 25.9148 8.9375 21.9031C8.9375 15.7259 15.2324 10.7273 23 10.7273C26.9017 10.7273 30.4301 12.0057 32.9716 14.0333C35.352 15.9381 36.8758 18.523 37.0395 21.3918C37.0668 21.7567 37.0745 22.1229 37.0625 22.4887Z" fill="white"/>
<path d="M19.1237 24.3781C19.1917 24.4446 19.2456 24.5242 19.2821 24.6121C19.3185 24.7 19.3369 24.7943 19.3359 24.8895C19.3363 24.984 19.3179 25.0777 19.282 25.1652C19.246 25.2527 19.1932 25.3322 19.1264 25.3992C19.0597 25.4661 18.9804 25.5193 18.893 25.5556C18.8057 25.5918 18.712 25.6105 18.6175 25.6105H15.7411C15.55 25.6098 15.367 25.5336 15.232 25.3986C15.0969 25.2635 15.0207 25.0805 15.02 24.8895V19.4562C15.0194 19.3611 15.0379 19.2669 15.0743 19.179C15.1108 19.0912 15.1645 19.0116 15.2323 18.9449C15.3329 18.8439 15.4613 18.7752 15.6011 18.7474C15.7409 18.7196 15.8858 18.7341 16.0174 18.7889C16.149 18.8437 16.2613 18.9365 16.34 19.0553C16.4187 19.1741 16.4603 19.3137 16.4595 19.4562V24.1684H18.6175C18.7116 24.1677 18.8049 24.1859 18.8919 24.2219C18.9788 24.2579 19.0577 24.311 19.1237 24.3781Z" fill="#00C200"/>
<path d="M21.4657 19.3001V25.0452C21.465 25.1942 21.4056 25.3369 21.3002 25.4422C21.1949 25.5476 21.0522 25.6071 20.9032 25.6077H20.5811C20.4319 25.6077 20.2888 25.5485 20.1833 25.443C20.0778 25.3375 20.0186 25.1944 20.0186 25.0452V19.3001C20.0186 19.1509 20.0778 19.0078 20.1833 18.9023C20.2888 18.7968 20.4319 18.7376 20.5811 18.7376H20.8955C20.97 18.7369 21.0438 18.7509 21.1128 18.7789C21.1817 18.8068 21.2445 18.8481 21.2975 18.9004C21.3505 18.9526 21.3926 19.0148 21.4215 19.0834C21.4503 19.152 21.4654 19.2257 21.4657 19.3001Z" fill="#00C200"/>
<path d="M28.1444 19.4561V24.8587C28.1445 25.053 28.0691 25.2398 27.9341 25.3796C27.7991 25.5193 27.615 25.6012 27.4208 25.6078C27.2388 25.6049 27.0645 25.5337 26.9325 25.4084C26.9069 25.3879 25.9404 24.13 25.1197 23.0715C24.506 22.2814 23.9742 21.5911 23.9742 21.5911V24.8868C23.9747 25.0265 23.9344 25.1633 23.8584 25.2804C23.7823 25.3976 23.6738 25.4901 23.546 25.5465C23.4182 25.6029 23.2767 25.6209 23.1389 25.5982C23.0011 25.5755 22.8729 25.5131 22.77 25.4186C22.6957 25.3514 22.6364 25.2693 22.5959 25.1777C22.5554 25.0861 22.5345 24.987 22.5347 24.8868V19.4868C22.5324 19.297 22.6029 19.1134 22.7318 18.9741C22.8607 18.8347 23.0382 18.7501 23.2276 18.7376C23.3348 18.7359 23.4411 18.7579 23.5388 18.8021C23.6365 18.8463 23.7232 18.9116 23.7927 18.9933C23.8234 19.0291 25.3089 20.9621 26.145 22.0615C26.4773 22.4911 26.7075 22.7928 26.7075 22.7928V19.4689C26.7088 19.2788 26.7849 19.0968 26.9194 18.9623C27.0538 18.8279 27.2358 18.7518 27.4259 18.7504C27.6143 18.7504 27.7951 18.8243 27.9295 18.9563C28.0639 19.0883 28.141 19.2678 28.1444 19.4561Z" fill="#00C200"/>
<path d="M30.6703 22.8899V24.1683H32.8257C32.9238 24.1624 33.0221 24.1767 33.1145 24.2102C33.2069 24.2438 33.2915 24.2958 33.3631 24.3632C33.4346 24.4306 33.4916 24.512 33.5306 24.6022C33.5695 24.6925 33.5896 24.7897 33.5896 24.888C33.5896 24.9863 33.5695 25.0836 33.5306 25.1738C33.4916 25.2641 33.4346 25.3454 33.3631 25.4128C33.2915 25.4802 33.2069 25.5323 33.1145 25.5658C33.0221 25.5994 32.9238 25.6136 32.8257 25.6078H29.9416C29.7508 25.6071 29.5681 25.5308 29.4334 25.3957C29.2988 25.2605 29.2231 25.0775 29.2231 24.8868V19.4561C29.2238 19.2657 29.2997 19.0834 29.4343 18.9488C29.5689 18.8142 29.7513 18.7383 29.9416 18.7376H32.818C32.9162 18.7318 33.0144 18.746 33.1069 18.7796C33.1993 18.8131 33.2838 18.8651 33.3554 18.9326C33.4269 19 33.4839 19.0813 33.5229 19.1715C33.5619 19.2618 33.582 19.359 33.582 19.4573C33.582 19.5557 33.5619 19.6529 33.5229 19.7432C33.4839 19.8334 33.4269 19.9147 33.3554 19.9821C33.2838 20.0496 33.1993 20.1016 33.1069 20.1351C33.0144 20.1687 32.9162 20.1829 32.818 20.1771H30.6703V21.4555H32.8257C33.0163 21.4555 33.199 21.5312 33.3337 21.6659C33.4685 21.8007 33.5442 21.9834 33.5442 22.174C33.5442 22.3645 33.4685 22.5473 33.3337 22.682C33.199 22.8167 33.0163 22.8924 32.8257 22.8924L30.6703 22.8899Z" fill="#00C200"/>
</g>
<defs>
<clipPath id="clip0_40005093_91733">
<rect width="45" height="45" fill="white" transform="translate(0.5 0.5)"/>
</clipPath>
</defs>
</svg>
