<svg width="46" height="46" viewBox="0 0 46 46" fill="none" xmlns="http://www.w3.org/2000/svg">
<g clip-path="url(#clip0_40005093_91736)">
<path d="M23 45.5C35.4264 45.5 45.5 35.4264 45.5 23C45.5 10.5736 35.4264 0.5 23 0.5C10.5736 0.5 0.5 10.5736 0.5 23C0.5 35.4264 10.5736 45.5 23 45.5Z" fill="#0084FF"/>
<path d="M37.0625 22.4708C37.0625 29.6632 30.7651 35.4927 23 35.4927C21.6367 35.4936 20.2796 35.3104 18.9653 34.9481L14.1764 37.574V32.6086C10.983 30.2231 8.9375 26.5797 8.9375 22.4708C8.9375 15.2785 15.2349 9.44897 23 9.44897C30.7651 9.44897 37.0625 15.2811 37.0625 22.4708Z" fill="white"/>
<path d="M32.0843 18.8247L24.3959 26.981L20.8164 23.1636L13.8286 26.9835L21.517 18.8247L25.186 22.642L32.0843 18.8247Z" fill="#2196F3"/>
</g>
<defs>
<clipPath id="clip0_40005093_91736">
<rect width="45" height="45" fill="white" transform="translate(0.5 0.5)"/>
</clipPath>
</defs>
</svg>
