<svg width="46" height="46" viewBox="0 0 46 46" fill="none" xmlns="http://www.w3.org/2000/svg">
<rect x="0.5" y="0.5" width="45" height="45" rx="22.5" fill="#ECECED"/>
<path d="M19.4651 22.2929C20.5981 21.1599 22.5741 21.1599 23.7071 22.2929L24.4141 22.9999L25.8281 21.5859L25.1211 20.8789C24.1781 19.9349 22.9221 19.4139 21.5861 19.4139C20.2501 19.4139 18.9941 19.9349 18.0511 20.8789L15.9291 22.9999C14.9938 23.9389 14.4688 25.2102 14.4688 26.5354C14.4688 27.8607 14.9938 29.132 15.9291 30.0709C16.3928 30.5356 16.9439 30.904 17.5506 31.1549C18.1572 31.4058 18.8075 31.5343 19.4641 31.5329C20.1207 31.5344 20.7712 31.406 21.3781 31.1551C21.9849 30.9042 22.5362 30.5357 23.0001 30.0709L23.7071 29.3639L22.2931 27.9499L21.5861 28.6569C21.0225 29.2179 20.2597 29.5329 19.4646 29.5329C18.6694 29.5329 17.9066 29.2179 17.3431 28.6569C16.7816 28.0937 16.4663 27.3308 16.4663 26.5354C16.4663 25.7401 16.7816 24.9772 17.3431 24.4139L19.4651 22.2929Z" fill="#00AEEF"/>
<path d="M22.9999 15.929L22.2929 16.636L23.7069 18.05L24.4139 17.343C24.9774 16.782 25.7402 16.467 26.5354 16.467C27.3305 16.467 28.0933 16.782 28.6569 17.343C29.2184 17.9063 29.5337 18.6692 29.5337 19.4645C29.5337 20.2598 29.2184 21.0227 28.6569 21.586L26.5349 23.707C25.4019 24.84 23.4259 24.84 22.2929 23.707L21.5859 23L20.1719 24.414L20.8789 25.121C21.8219 26.065 23.0779 26.586 24.4139 26.586C25.7499 26.586 27.0059 26.065 27.9489 25.121L30.0709 23C31.0061 22.061 31.5312 20.7898 31.5312 19.4645C31.5312 18.1392 31.0061 16.868 30.0709 15.929C29.1324 14.9928 27.861 14.467 26.5354 14.467C25.2098 14.467 23.9383 14.9928 22.9999 15.929Z" fill="#00AEEF"/>
</svg>
