<svg width="45" height="46" viewBox="0 0 45 46" fill="none" xmlns="http://www.w3.org/2000/svg">
<path d="M31.875 6.7623C34.703 8.39515 37.0555 10.7383 38.6997 13.5597C40.3438 16.3812 41.2225 19.5831 41.2489 22.8486C41.2753 26.114 40.4484 29.3297 38.85 32.1774C37.2517 35.025 34.9373 37.4058 32.1361 39.0841C29.3348 40.7625 26.1438 41.6801 22.8789 41.7462C19.6141 41.8122 16.3885 41.0245 13.5217 39.4609C10.6548 37.8973 8.24601 35.612 6.53375 32.8314C4.82149 30.0508 3.86514 26.8711 3.75938 23.6073L3.75 22.9998L3.75938 22.3923C3.86438 19.1542 4.80665 15.9985 6.49432 13.2329C8.182 10.4673 10.5575 8.18627 13.3892 6.61208C16.2209 5.03789 19.4121 4.22429 22.6519 4.25062C25.8916 4.27695 29.0693 5.14229 31.875 6.7623ZM22.5 11.7498C22.0408 11.7499 21.5975 11.9185 21.2543 12.2236C20.9111 12.5288 20.6919 12.9493 20.6381 13.4054L20.625 13.6248V22.9998L20.6419 23.2454C20.6846 23.5707 20.812 23.8791 21.0113 24.1398L21.1744 24.3273L26.7994 29.9523L26.9756 30.106C27.3044 30.3612 27.7088 30.4996 28.125 30.4996C28.5412 30.4996 28.9456 30.3612 29.2744 30.106L29.4506 29.9504L29.6063 29.7742C29.8614 29.4453 29.9998 29.041 29.9998 28.6248C29.9998 28.2086 29.8614 27.8042 29.6063 27.4754L29.4506 27.2992L24.375 22.2217V13.6248L24.3619 13.4054C24.3081 12.9493 24.0889 12.5288 23.7457 12.2236C23.4025 11.9185 22.9592 11.7499 22.5 11.7498Z" fill="#FC9700"/>
</svg>
