<svg width="23" height="28" viewBox="0 0 23 28" fill="none" xmlns="http://www.w3.org/2000/svg">
<path d="M6.16658 10.2667L7.76658 8.66666L16.8333 17.7333L15.2333 19.3333L6.16658 10.2667ZM0.833252 24.6667L0.833251 3.33333C0.833251 1.85333 2.01992 0.666664 3.49992 0.666664L8.83325 0.666664C8.83325 1.37391 9.1142 2.05218 9.6143 2.55228C10.1144 3.05238 10.7927 3.33333 11.4999 3.33333C12.2072 3.33333 12.8854 3.05238 13.3855 2.55228C13.8856 2.05218 14.1666 1.37391 14.1666 0.666664L19.4999 0.666663C20.9799 0.666663 22.1666 1.85333 22.1666 3.33333L22.1666 24.6667C22.1666 25.3739 21.8856 26.0522 21.3855 26.5523C20.8854 27.0524 20.2072 27.3333 19.4999 27.3333L14.1666 27.3333C14.1666 25.8533 12.9799 24.6667 11.4999 24.6667C10.7927 24.6667 10.1144 24.9476 9.6143 25.4477C9.1142 25.9478 8.83325 26.6261 8.83325 27.3333L3.49992 27.3333C2.79267 27.3333 2.1144 27.0524 1.6143 26.5523C1.1142 26.0522 0.833252 25.3739 0.833252 24.6667ZM3.49992 24.6667L6.88659 24.6667C7.35378 23.8564 8.02613 23.1835 8.83599 22.7157C9.64584 22.2478 10.5646 22.0015 11.4999 22.0015C12.4352 22.0015 13.354 22.2478 14.1639 22.7157C14.9737 23.1835 15.6461 23.8564 16.1133 24.6667L19.4999 24.6667L19.4999 3.33333L16.1133 3.33333C15.6461 4.14357 14.9737 4.81647 14.1638 5.28434C13.354 5.7522 12.4352 5.99853 11.4999 5.99853C10.5646 5.99853 9.64584 5.7522 8.83599 5.28434C8.02613 4.81647 7.35378 4.14357 6.88658 3.33333L3.49992 3.33333L3.49992 24.6667ZM6.16659 17.3333C6.16658 16.2267 7.05992 15.3333 8.16658 15.3333C9.27325 15.3333 10.1666 16.2267 10.1666 17.3333C10.1666 18.44 9.27325 19.3333 8.16659 19.3333C7.05992 19.3333 6.16659 18.44 6.16659 17.3333ZM12.8333 10.6667C12.8333 9.56 13.7266 8.66666 14.8333 8.66666C15.9399 8.66666 16.8333 9.55999 16.8333 10.6667C16.8333 11.7733 15.9399 12.6667 14.8333 12.6667C13.7266 12.6667 12.8333 11.7733 12.8333 10.6667Z" fill="#8C8A94"/>
</svg>
