<svg width="24" height="25" viewBox="0 0 24 25" fill="none" xmlns="http://www.w3.org/2000/svg">
<path d="M7.50049 4.6001H9.8999C9.97938 4.6001 10.0564 4.62407 10.1216 4.66748L10.1831 4.71729C10.2581 4.79229 10.3003 4.89445 10.3003 5.00049C10.3002 5.10634 10.2579 5.20781 10.1831 5.28271C10.1081 5.35773 10.006 5.3999 9.8999 5.3999H7.50049C6.89708 5.3999 6.31473 5.60964 5.85205 5.98877L5.66162 6.16162C5.17403 6.64922 4.8999 7.31093 4.8999 8.00049V17.0005C4.90011 18.4357 6.06528 19.6001 7.50049 19.6001H16.5005C17.1899 19.6 17.8509 19.3259 18.3384 18.8384C18.8259 18.3509 19.1 17.6899 19.1001 17.0005V14.6001C19.1001 14.5206 19.124 14.4436 19.1675 14.3784L19.2173 14.3169C19.2923 14.242 19.3945 14.1997 19.5005 14.1997C19.5799 14.1998 19.657 14.2237 19.7222 14.2671L19.7827 14.3169C19.8577 14.3919 19.8999 14.494 19.8999 14.6001V17.0005C19.8998 17.8455 19.5854 18.6582 19.021 19.2817L18.9038 19.4038C18.2663 20.0413 17.4021 20.3998 16.5005 20.3999H7.50049C6.65526 20.3999 5.84192 20.0856 5.21826 19.521L5.09619 19.4038C4.45872 18.7663 4.1002 17.902 4.1001 17.0005V8.00049L4.104 7.83154C4.1429 7.04716 4.45284 6.3004 4.97998 5.71826L5.09619 5.59619C5.69398 4.99841 6.49117 4.64568 7.33154 4.604L7.50049 4.6001ZM13.5005 4.6001H19.5005C19.58 4.60018 19.657 4.62397 19.7222 4.66748L19.7827 4.71729C19.8577 4.7923 19.8999 4.8944 19.8999 5.00049V11.0005C19.8998 11.1064 19.8576 11.2078 19.7827 11.2827C19.7078 11.3576 19.6064 11.3998 19.5005 11.3999C19.4208 11.3999 19.3432 11.3762 19.2778 11.3325L19.2173 11.2827C19.1424 11.2078 19.1002 11.1064 19.1001 11.0005V5.96533L13.7827 11.2827L13.7759 11.2886L13.77 11.2954C13.7334 11.3346 13.6891 11.3664 13.6401 11.3882C13.5912 11.4099 13.5384 11.4214 13.4849 11.4224L13.4048 11.4155L13.3276 11.3931C13.278 11.373 13.2327 11.3431 13.1948 11.3052C13.1569 11.2672 13.127 11.2221 13.1069 11.1724C13.0969 11.1474 13.0893 11.1215 13.0845 11.0952L13.0776 11.0151C13.0786 10.9616 13.0901 10.9087 13.1118 10.8599C13.1336 10.8109 13.1654 10.7666 13.2046 10.73L13.2114 10.7241L13.2173 10.7173L17.6821 6.25342L18.5356 5.3999H13.5005L13.4214 5.39209C13.3701 5.38179 13.3213 5.3616 13.2778 5.33252L13.2173 5.28271C13.1424 5.2078 13.1002 5.10639 13.1001 5.00049C13.1001 4.92079 13.1238 4.84313 13.1675 4.77783L13.2173 4.71729C13.2735 4.6611 13.3446 4.62332 13.4214 4.60791L13.5005 4.6001Z" stroke="white"/>
</svg>
