<svg width="20" height="20" viewBox="0 0 20 20" fill="none" xmlns="http://www.w3.org/2000/svg">
<path d="M2.5 15V7.50001C2.50003 6.837 2.7636 6.20124 3.23242 5.73243C3.70126 5.26362 4.33698 5.00001 5 5.00001H5.83333C6.29354 5.00001 6.66661 5.37315 6.66667 5.83334C6.66667 6.29358 6.29357 6.66667 5.83333 6.66667H5C4.77901 6.66667 4.56708 6.75456 4.41081 6.91081C4.25455 7.06707 4.16669 7.27903 4.16667 7.50001V15C4.16667 15.221 4.25456 15.4329 4.41081 15.5892C4.56709 15.7455 4.77899 15.8333 5 15.8333H12.5C12.721 15.8333 12.9329 15.7455 13.0892 15.5892C13.2454 15.4329 13.3333 15.221 13.3333 15V14.1667C13.3334 13.7065 13.7065 13.3333 14.1667 13.3333C14.6269 13.3333 14.9999 13.7065 15 14.1667V15C15 15.663 14.7364 16.2987 14.2676 16.7676C13.7987 17.2364 13.163 17.5 12.5 17.5H5C4.33696 17.5 3.70126 17.2364 3.23242 16.7676C2.76361 16.2987 2.5 15.663 2.5 15ZM16.6667 4.25049C16.6667 4.00735 16.57 3.77382 16.3981 3.60189C16.2263 3.43007 15.9933 3.33342 15.7503 3.33334C15.5072 3.33334 15.2737 3.42997 15.1017 3.60189L15.1009 3.60271L14.5231 4.17807L15.8211 5.47608L16.3981 4.89828C16.5699 4.72645 16.6666 4.49349 16.6667 4.25049ZM8.33333 10.3459V11.6667H9.65413L14.6452 6.65691L13.3423 5.35401L8.33333 10.3459ZM18.3333 4.25049C18.3332 4.93496 18.061 5.59076 17.5773 6.07504L16.5202 7.13624C16.4915 7.1781 16.4597 7.21868 16.4225 7.25586C16.3869 7.29148 16.3477 7.32163 16.3078 7.34945L10.59 13.0884C10.4337 13.2452 10.2214 13.3333 10 13.3333H7.5C7.03976 13.3333 6.66667 12.9602 6.66667 12.5V10C6.66669 9.7786 6.75484 9.56632 6.91162 9.41L12.6473 3.69385C12.6756 3.65297 12.7077 3.61387 12.7441 3.57748C12.7814 3.54019 12.8218 3.50775 12.8638 3.47901L13.9242 2.42269C14.4086 1.93869 15.0655 1.66667 15.7503 1.66667C16.4354 1.66676 17.0921 1.93913 17.5765 2.42351C18.061 2.90799 18.3333 3.56533 18.3333 4.25049Z" fill="#5A5A5A"/>
</svg>
