<svg width="20" height="20" viewBox="0 0 20 20" fill="none" xmlns="http://www.w3.org/2000/svg">
<path d="M9.99978 4.16667C13.3794 4.16667 16.1146 6.07165 18.2143 9.57113C18.3726 9.83503 18.3726 10.165 18.2143 10.4289C16.1146 13.9284 13.3794 15.8333 9.99978 15.8333C6.62018 15.8333 3.88499 13.9284 1.78526 10.4289C1.62692 10.165 1.62692 9.83503 1.78526 9.57113C3.88499 6.07165 6.62018 4.16667 9.99978 4.16667ZM9.99978 5.83334C7.50081 5.83334 5.32564 7.13264 3.48122 10C5.32564 12.8674 7.50081 14.1667 9.99978 14.1667C12.4986 14.1667 14.6732 12.8671 16.5175 10C14.6732 7.13289 12.4986 5.83334 9.99978 5.83334ZM10.8331 10C10.8331 9.77899 10.7453 9.56709 10.589 9.41081C10.4327 9.25453 10.2208 9.16667 9.99978 9.16667C9.77877 9.16667 9.56687 9.25453 9.41059 9.41081C9.25431 9.56709 9.16645 9.77899 9.16645 10C9.16645 10.221 9.25431 10.4329 9.41059 10.5892C9.56687 10.7455 9.77877 10.8333 9.99978 10.8333C10.2208 10.8333 10.4327 10.7455 10.589 10.5892C10.7453 10.4329 10.8331 10.221 10.8331 10ZM12.4998 10C12.4998 10.663 12.2362 11.2987 11.7674 11.7676C11.2985 12.2364 10.6628 12.5 9.99978 12.5C9.33674 12.5 8.70104 12.2364 8.2322 11.7676C7.76336 11.2987 7.49978 10.663 7.49978 10C7.49978 9.33696 7.76336 8.70127 8.2322 8.23243C8.70104 7.76359 9.33674 7.50001 9.99978 7.50001C10.6628 7.50001 11.2985 7.76359 11.7674 8.23243C12.2362 8.70127 12.4998 9.33696 12.4998 10Z" fill="#5A5A5A"/>
</svg>
