<svg width="20" height="20" viewBox="0 0 20 20" fill="none" xmlns="http://www.w3.org/2000/svg">
<path d="M1.91059 1.91083C2.23602 1.58539 2.76353 1.58539 3.08897 1.91083L14.426 13.2479C14.4682 13.2822 14.5069 13.3212 14.5424 13.3643L18.089 16.9108C18.4144 17.2363 18.4144 17.7638 18.089 18.0892C17.7635 18.4146 17.236 18.4146 16.9106 18.0892L13.7547 14.9333C12.5965 15.5298 11.3091 15.8403 9.99978 15.8325V15.8334L9.99734 15.8325C9.99632 15.8325 9.9951 15.8334 9.99408 15.8334V15.8325C6.6171 15.8304 3.88381 13.9264 1.78526 10.4289C1.62692 10.165 1.62692 9.83505 1.78526 9.57115C2.67645 8.08585 3.68269 6.88353 4.81342 5.99204L1.91059 3.08921C1.58515 2.76377 1.58515 2.23626 1.91059 1.91083ZM6.00238 7.18101C5.10917 7.84968 4.26578 8.78087 3.48122 10C5.32565 12.8674 7.5008 14.1667 9.99978 14.1667H10.0055C10.865 14.1723 11.7127 14.0044 12.5006 13.6792L11.0756 12.2543C10.7424 12.4134 10.3761 12.5008 9.99978 12.5008C9.33688 12.5009 8.70109 12.2378 8.2322 11.7692C7.76336 11.3005 7.49999 10.6646 7.49978 10.0016C7.49971 9.625 7.58624 9.25768 7.74555 8.92417L6.00238 7.18101ZM9.99978 4.16669C13.3794 4.16669 16.1146 6.07167 18.2143 9.57115C18.3726 9.83505 18.3726 10.165 18.2143 10.4289C17.6335 11.3969 17.004 12.2443 16.3238 12.9639C16.0077 13.2984 15.4799 13.3134 15.1454 12.9973C14.8111 12.6811 14.7968 12.1541 15.1129 11.8197C15.6004 11.3039 16.0682 10.6973 16.5175 9.99921C14.6732 7.13251 12.4985 5.83335 9.99978 5.83335H9.99734C9.54436 5.8322 9.09203 5.87694 8.64805 5.96682C8.19724 6.05786 7.75809 5.76649 7.66661 5.31577C7.5753 4.86474 7.86665 4.4249 8.31765 4.33351C8.87127 4.22144 9.43493 4.16537 9.99978 4.16669ZM9.41059 10.59C9.41317 10.5926 9.41611 10.5948 9.41872 10.5974L9.40245 10.5811C9.40523 10.5839 9.40776 10.5872 9.41059 10.59Z" fill="#5A5A5A"/>
</svg>
