<svg width="21" height="20" viewBox="0 0 21 20" fill="none" xmlns="http://www.w3.org/2000/svg">
<path d="M2.8335 14.9999V4.99995C2.8335 4.33691 3.09708 3.70121 3.56592 3.23237C4.03476 2.76353 4.67046 2.49995 5.3335 2.49995H10.3335C10.7937 2.49995 11.1668 2.87304 11.1668 3.33328C11.1668 3.79352 10.7937 4.16661 10.3335 4.16661H5.3335C5.11248 4.16661 4.90058 4.25447 4.7443 4.41075C4.58802 4.56703 4.50016 4.77893 4.50016 4.99995V14.9999L4.50423 15.0821C4.52314 15.273 4.60752 15.4524 4.7443 15.5891C4.90058 15.7454 5.11248 15.8333 5.3335 15.8333H12.0002C12.4604 15.8333 12.8335 16.2064 12.8335 16.6666C12.8335 17.1269 12.4604 17.4999 12.0002 17.4999H5.3335C4.67045 17.4999 4.03476 17.2364 3.56592 16.7675C3.09708 16.2987 2.8335 15.663 2.8335 14.9999ZM14.5002 16.6666V4.51167L13.4227 5.58914C13.0973 5.91458 12.5697 5.91458 12.2443 5.58914C11.9189 5.2637 11.9189 4.73619 12.2443 4.41075L14.7443 1.91075L14.8078 1.85379C15.1351 1.58683 15.6176 1.60566 15.9227 1.91075L18.4227 4.41075C18.7481 4.73619 18.7481 5.2637 18.4227 5.58914C18.0973 5.91458 17.5697 5.91458 17.2443 5.58914L16.1668 4.51167V16.6666C16.1668 17.1269 15.7937 17.4999 15.3335 17.4999C14.8733 17.4999 14.5002 17.1269 14.5002 16.6666Z" fill="#5A5A5A"/>
</svg>
