<svg width="20" height="20" viewBox="0 0 20 20" fill="none" xmlns="http://www.w3.org/2000/svg">
<path d="M8.33333 3.33334V5.00001H11.6667V3.33334H8.33333ZM5.83008 15.7642C5.832 15.7872 5.83333 15.8102 5.83333 15.8333C5.83333 16.0544 5.92119 16.2663 6.07747 16.4225C6.23375 16.5788 6.44565 16.6667 6.66667 16.6667H13.3333C13.5543 16.6667 13.7662 16.5788 13.9225 16.4225C14.0788 16.2663 14.1667 16.0544 14.1667 15.8333L14.1699 15.7642L14.9284 6.66667H5.07161L5.83008 15.7642ZM7.5 14.1667V9.16667C7.5 8.70643 7.8731 8.33334 8.33333 8.33334C8.79357 8.33334 9.16667 8.70643 9.16667 9.16667V14.1667C9.16667 14.6269 8.79357 15 8.33333 15C7.8731 15 7.5 14.6269 7.5 14.1667ZM10.8333 14.1667V9.16667C10.8333 8.70643 11.2064 8.33334 11.6667 8.33334C12.1269 8.33334 12.5 8.70643 12.5 9.16667V14.1667C12.5 14.6269 12.1269 15 11.6667 15C11.2064 15 10.8333 14.6269 10.8333 14.1667ZM13.3333 5.00001H16.6667C17.1269 5.00001 17.5 5.3731 17.5 5.83334C17.5 6.29358 17.1269 6.66667 16.6667 6.66667H16.5999L15.8301 15.9025C15.8124 16.5404 15.5534 17.1484 15.1009 17.6009C14.6321 18.0698 13.9964 18.3333 13.3333 18.3333H6.66667C6.00363 18.3333 5.36793 18.0698 4.89909 17.6009C4.44659 17.1484 4.18758 16.5404 4.16992 15.9025L3.40007 6.66667H3.33333C2.8731 6.66667 2.5 6.29358 2.5 5.83334C2.5 5.3731 2.8731 5.00001 3.33333 5.00001H6.66667V3.33334C6.66667 2.89131 6.84239 2.46751 7.15495 2.15495C7.46751 1.84239 7.89131 1.66667 8.33333 1.66667H11.6667C12.1087 1.66667 12.5325 1.84239 12.8451 2.15495C13.1576 2.46751 13.3333 2.89131 13.3333 3.33334V5.00001Z" fill="#5A5A5A"/>
</svg>
